<?xml version="1.0" encoding="UTF-8"?>
<svg version="1.1" xmlns="http://www.w3.org/2000/svg" width="324" height="110">
<path d="M0 0 C2.32590854 3.63423209 2.16265833 6.77088331 2 11 C2.66 10.67 3.32 10.34 4 10 C3.95875 9.05125 3.9175 8.1025 3.875 7.125 C4 4 4 4 6 2 C8.9375 2.0625 8.9375 2.0625 12 3 C15.84305913 8.03573265 16.23571123 13.05351413 16.5625 19.1875 C16.62727539 20.31188477 16.62727539 20.31188477 16.69335938 21.45898438 C16.79922685 23.30578375 16.9000976 25.15286834 17 27 C14.525 26.01 14.525 26.01 12 25 C12 24.34 12 23.68 12 23 C11.4225 22.731875 10.845 22.46375 10.25 22.1875 C7.96587952 20.98199197 6.04568469 19.56864477 4 18 C4.5053125 18.75925781 5.010625 19.51851562 5.53125 20.30078125 C6.1809375 21.29464844 6.830625 22.28851562 7.5 23.3125 C8.47453125 24.79169922 8.47453125 24.79169922 9.46875 26.30078125 C11 29 11 29 11 32 C8.69 32 6.38 32 4 32 C4 32.66 4 33.32 4 34 C4.69867188 33.96519531 5.39734375 33.93039063 6.1171875 33.89453125 C7.02726562 33.86746094 7.93734375 33.84039062 8.875 33.8125 C9.77992187 33.77769531 10.68484375 33.74289063 11.6171875 33.70703125 C12.79667969 33.85205078 12.79667969 33.85205078 14 34 C14.66 34.99 15.32 35.98 16 37 C18.58380177 37.25030977 18.58380177 37.25030977 21 37 C22.90592038 40.22700521 23.25661983 42.63251957 23.265625 46.359375 C23.26949219 47.91011719 23.26949219 47.91011719 23.2734375 49.4921875 C23.26570313 50.56726562 23.25796875 51.64234375 23.25 52.75 C23.26160156 54.33941406 23.26160156 54.33941406 23.2734375 55.9609375 C23.25292611 64.22702721 22.58709231 70.91085734 18 78 C18 78.66 18 79.32 18 80 C18.97582031 80.37511719 19.95164063 80.75023438 20.95703125 81.13671875 C22.24252952 81.6527947 23.52766725 82.16976937 24.8125 82.6875 C25.45509766 82.93177734 26.09769531 83.17605469 26.75976562 83.42773438 C31.06349703 85.18936536 33.0934595 86.75209398 35 91 C35.33 91.99 35.66 92.98 36 94 C33.59454362 95.20272819 32.05003047 95.10071472 29.375 95.0625 C28.55773437 95.05347656 27.74046875 95.04445313 26.8984375 95.03515625 C26.27195313 95.02355469 25.64546875 95.01195313 25 95 C25 94.34 25 93.68 25 93 C24.01 93 23.02 93 22 93 C21.34 94.32 20.68 95.64 20 97 C15.92489562 97.0247345 11.84982036 97.04287637 7.7746582 97.05493164 C6.38858275 97.05995777 5.00251259 97.06677966 3.61645508 97.07543945 C1.62323285 97.08758018 -0.37002819 97.09271021 -2.36328125 97.09765625 C-3.56251221 97.10289307 -4.76174316 97.10812988 -5.99731445 97.11352539 C-9 97 -9 97 -12 96 C-14.91980091 95.79389641 -17.82678957 95.62689177 -20.75 95.5 C-26.23198635 95.2573547 -31.5789782 94.86968264 -37 94 C-35.515 93.505 -35.515 93.505 -34 93 C-34.3403125 91.8553125 -34.3403125 91.8553125 -34.6875 90.6875 C-35 88 -35 88 -33.86328125 86.5 C-31.55125595 84.63874692 -29.20803337 83.52456332 -26.5 82.3125 C-25.5409375 81.87550781 -24.581875 81.43851562 -23.59375 80.98828125 C-21 80 -21 80 -18 80 C-18.42877441 79.31647461 -18.85754883 78.63294922 -19.29931641 77.92871094 C-24.23174584 69.27003568 -24.74995213 62.04120274 -24.375 52.25 C-24.34481264 50.85943382 -24.31745252 49.46880329 -24.29296875 48.078125 C-24.22294653 44.71705863 -24.12477783 41.35940301 -24 38 C-21.36 38 -18.72 38 -16 38 C-15.67 36.68 -15.34 35.36 -15 34 C-14.071875 33.896875 -13.14375 33.79375 -12.1875 33.6875 C-9.1165121 33.18366807 -9.1165121 33.18366807 -7.0625 31.9375 C-5.29880005 28.72134127 -6.24306818 25.47627946 -7 22 C-7.33 21.01 -7.66 20.02 -8 19 C-9.98264795 19.65589738 -9.98264795 19.65589738 -12 21 C-12.309375 21.78375 -12.61875 22.5675 -12.9375 23.375 C-14.27448384 26.67813656 -16.13649309 27.96540299 -19 30 C-20.25527404 26.23417788 -20.26217235 22.67555674 -20.3125 18.75 C-20.34150391 18.01136719 -20.37050781 17.27273437 -20.40039062 16.51171875 C-20.46492528 10.88231073 -19.30592832 7.58794002 -16 3 C-12.875 1.9375 -12.875 1.9375 -10 2 C-7.8614515 4.1385485 -7.57344937 5.13275314 -7 8 C-6.34 6.68 -5.68 5.36 -5 4 C-5.66 4 -6.32 4 -7 4 C-7 3.01 -7 2.02 -7 1 C-4.53721199 -0.231394 -2.7204945 -0.07159196 0 0 Z M-3 30 C-2.67 31.32 -2.34 32.64 -2 34 C-1.01 33.67 -0.02 33.34 1 33 C0.67 32.01 0.34 31.02 0 30 C-0.99 30 -1.98 30 -3 30 Z M-11 43 C-6.928943 49.05700117 -6.928943 49.05700117 -3.02734375 49.796875 C-1.49787109 49.77367187 -1.49787109 49.77367187 0.0625 49.75 C1.08472656 49.76546875 2.10695313 49.7809375 3.16015625 49.796875 C6.88447263 49.08432188 6.88447263 49.08432188 10 43 C3.07 43 -3.86 43 -11 43 Z M-17 48 C-17.08156437 50.85475306 -17.14076372 53.70713565 -17.1875 56.5625 C-17.21263672 57.36236328 -17.23777344 58.16222656 -17.26367188 58.98632812 C-17.34741484 65.82533698 -16.14518582 70.45964837 -11.625 75.8125 C-9.10442401 77.91297999 -7.10832367 79.02309827 -4 80 C-3.92345464 75.48382401 -3.89771304 71.40914783 -5 67 C-7.64 67 -10.28 67 -13 67 C-12.97679687 65.87980469 -12.95359375 64.75960937 -12.9296875 63.60546875 C-12.91092763 62.13281916 -12.89272766 60.66016237 -12.875 59.1875 C-12.85824219 58.44951172 -12.84148438 57.71152344 -12.82421875 56.95117188 C-12.78925372 53.08753574 -12.80602445 51.29096332 -15 48 C-15.66 48 -16.32 48 -17 48 Z M13.48046875 49.01953125 C11.26289147 51.98605284 11.42924453 55.11511746 11.3125 58.6875 C11.27833984 59.38939453 11.24417969 60.09128906 11.20898438 60.81445312 C11.12670053 62.54241387 11.0616676 64.27118072 11 66 C8.69 66.66 6.38 67.32 4 68 C4 71.96 4 75.92 4 80 C9.19502895 77.40248553 12.50433055 75.47127534 15 70 C16.13209636 62.72771996 16.1244844 55.34457949 16 48 C14.83342266 47.90713985 14.83342266 47.90713985 13.48046875 49.01953125 Z M-3 51 C-2 53 -2 53 -2 53 Z M-7 60 C-7 60.33 -7 60.66 -7 61 C-5.35 61 -3.7 61 -2 61 C-2 60.67 -2 60.34 -2 60 C-3.65 60 -5.3 60 -7 60 Z M1 60 C5 61 5 61 5 61 Z M-32 88 C-32 89.65 -32 91.3 -32 93 C-30.68 93.33 -29.36 93.66 -28 94 C-28 92.02 -28 90.04 -28 88 C-29.32 88 -30.64 88 -32 88 Z M-23 89 C-22.34 90.65 -21.68 92.3 -21 94 C-20.896875 93.360625 -20.79375 92.72125 -20.6875 92.0625 C-20.460625 91.381875 -20.23375 90.70125 -20 90 C-19.01 89.67 -18.02 89.34 -17 89 C-18.98 89 -20.96 89 -23 89 Z M26 89 C26 90.65 26 92.3 26 94 C27.32 93.67 28.64 93.34 30 93 C30 91.68 30 90.36 30 89 C28.68 89 27.36 89 26 89 Z M-13 90 C-12.01 90.495 -12.01 90.495 -11 91 C-10.67 91.99 -10.34 92.98 -10 94 C-10 93.01 -10 92.02 -10 91 C-8.39125 91.2784375 -8.39125 91.2784375 -6.75 91.5625 C-3.59608454 91.9304568 -1.90181508 92.04465343 1 91 C1.33 91.66 1.66 92.32 2 93 C2 92.34 2 91.68 2 91 C2.99 91.33 3.98 91.66 5 92 C7.232269 91.91382274 9.46238486 91.76077759 11.6875 91.5625 C13.45673828 91.40974609 13.45673828 91.40974609 15.26171875 91.25390625 C16.16535156 91.17011719 17.06898437 91.08632812 18 91 C18 90.67 18 90.34 18 90 C7.77 90 -2.46 90 -13 90 Z M20 90 C21 94 21 94 21 94 Z M33 91 C34 93 34 93 34 93 Z M5 92 C6 95 6 95 6 95 Z M8 92 C8 92.99 8 93.98 8 95 C8.66 94.67 9.32 94.34 10 94 C9.34 93.34 8.68 92.68 8 92 Z M-8 93 C-7 95 -7 95 -7 95 Z " fill="#6D6616" transform="translate(52,4)"/>
<path d="M0 0 C0.1875 2.8125 0.1875 2.8125 0 6 C-0.4846875 6.4021875 -0.969375 6.804375 -1.46875 7.21875 C-3.85795969 9.99803474 -3.57283355 13.17870662 -3.6875 16.6875 C-3.72166016 17.38939453 -3.75582031 18.09128906 -3.79101562 18.81445312 C-3.87329947 20.54241387 -3.9383324 22.27118072 -4 24 C-6.31 24.66 -8.62 25.32 -11 26 C-11.04898438 26.74765625 -11.09796875 27.4953125 -11.1484375 28.265625 C-11.22320312 29.25046875 -11.29796875 30.2353125 -11.375 31.25 C-11.44460937 32.22453125 -11.51421875 33.1990625 -11.5859375 34.203125 C-12 37 -12 37 -14 41 C-11.03 41 -8.06 41 -5 41 C-5.99 41.99 -6.98 42.98 -8 44 C-8.99 43.505 -8.99 43.505 -10 43 C-12.2072923 42.92907158 -14.41667452 42.91584975 -16.625 42.9375 C-18.40777344 42.95103516 -18.40777344 42.95103516 -20.2265625 42.96484375 C-21.14179687 42.97644531 -22.05703125 42.98804688 -23 43 C-21.68 43.33 -20.36 43.66 -19 44 C-19 44.66 -19 45.32 -19 46 C-14.05 45.67 -9.1 45.34 -4 45 C-3.67 43.35 -3.34 41.7 -3 40 C-2.67 40.66 -2.34 41.32 -2 42 C-0.68 42 0.64 42 2 42 C2 41.01 2 40.02 2 39 C7.53314944 39.93210761 12.36045942 41.81837061 17 45 C18.65175362 47.37439583 19.22282286 49.1688547 20 52 C17.59454362 53.20272819 16.05003047 53.10071472 13.375 53.0625 C12.14910156 53.04896484 12.14910156 53.04896484 10.8984375 53.03515625 C10.27195313 53.02355469 9.64546875 53.01195312 9 53 C9 52.34 9 51.68 9 51 C8.01 51 7.02 51 6 51 C5.34 52.32 4.68 53.64 4 55 C-0.07510438 55.0247345 -4.15017964 55.04287637 -8.2253418 55.05493164 C-9.61141725 55.05995777 -10.99748741 55.06677966 -12.38354492 55.07543945 C-14.37676715 55.08758018 -16.37002819 55.09271021 -18.36328125 55.09765625 C-19.56251221 55.10289307 -20.76174316 55.10812988 -21.99731445 55.11352539 C-25 55 -25 55 -28 54 C-30.91980091 53.79389641 -33.82678957 53.62689177 -36.75 53.5 C-42.23198635 53.2573547 -47.5789782 52.86968264 -53 52 C-51.515 51.505 -51.515 51.505 -50 51 C-50.226875 50.236875 -50.45375 49.47375 -50.6875 48.6875 C-51 46 -51 46 -49.86328125 44.5 C-47.55125595 42.63874692 -45.20803337 41.52456332 -42.5 40.3125 C-41.5409375 39.87550781 -40.581875 39.43851563 -39.59375 38.98828125 C-37 38 -37 38 -34 38 C-34 37.34 -34 36.68 -34 36 C-33.34 36 -32.68 36 -32 36 C-32 36.66 -32 37.32 -32 38 C-28.36576791 40.32590854 -25.22911669 40.16265833 -21 40 C-22.485 39.505 -22.485 39.505 -24 39 C-24 38.34 -24 37.68 -24 37 C-22.68 37.33 -21.36 37.66 -20 38 C-20.16371094 37.43796875 -20.32742187 36.8759375 -20.49609375 36.296875 C-21.02864997 33.86940944 -21.09898681 31.73110319 -21.0625 29.25 C-21.05347656 28.45078125 -21.04445313 27.6515625 -21.03515625 26.828125 C-21.02355469 26.22484375 -21.01195313 25.6215625 -21 25 C-23.64 25 -26.28 25 -29 25 C-29.04898438 23.91460937 -29.09796875 22.82921875 -29.1484375 21.7109375 C-29.22351986 20.26560216 -29.29906528 18.82029081 -29.375 17.375 C-29.4059375 16.66214844 -29.436875 15.94929688 -29.46875 15.21484375 C-29.71103049 10.81341483 -30.45904653 7.17184964 -32 3 C-32 2.34 -32 1.68 -32 1 C-26.44891641 1.50464396 -26.44891641 1.50464396 -24.1875 4 C-21.34405552 6.59972067 -19.54927617 6.58481408 -15.75 6.75 C-14.67234375 6.80671875 -13.5946875 6.8634375 -12.484375 6.921875 C-11.25460938 6.96054687 -11.25460938 6.96054687 -10 7 C-9.69707031 6.37609375 -9.39414062 5.7521875 -9.08203125 5.109375 C-6.79038886 0.64191331 -5.04928818 -0.40940174 0 0 Z M-19 9 C-18 11 -18 11 -18 11 Z M-23 18 C-23 18.33 -23 18.66 -23 19 C-21.35 19 -19.7 19 -18 19 C-18 18.67 -18 18.34 -18 18 C-19.65 18 -21.3 18 -23 18 Z M-15 18 C-11 19 -11 19 -11 19 Z M-48 46 C-48 47.65 -48 49.3 -48 51 C-46.68 51.33 -45.36 51.66 -44 52 C-44 50.02 -44 48.04 -44 46 C-45.32 46 -46.64 46 -48 46 Z M-39 47 C-38.34 48.65 -37.68 50.3 -37 52 C-36.896875 51.360625 -36.79375 50.72125 -36.6875 50.0625 C-36.460625 49.381875 -36.23375 48.70125 -36 48 C-35.01 47.67 -34.02 47.34 -33 47 C-34.98 47 -36.96 47 -39 47 Z M10 47 C10 48.65 10 50.3 10 52 C11.32 51.67 12.64 51.34 14 51 C14 49.68 14 48.36 14 47 C12.68 47 11.36 47 10 47 Z M-29 48 C-28.01 48.495 -28.01 48.495 -27 49 C-26.67 49.99 -26.34 50.98 -26 52 C-26 51.01 -26 50.02 -26 49 C-24.39125 49.2784375 -24.39125 49.2784375 -22.75 49.5625 C-19.59608454 49.9304568 -17.90181508 50.04465343 -15 49 C-14.67 49.66 -14.34 50.32 -14 51 C-14 50.34 -14 49.68 -14 49 C-13.01 49.33 -12.02 49.66 -11 50 C-8.767731 49.91382274 -6.53761514 49.76077759 -4.3125 49.5625 C-2.54326172 49.40974609 -2.54326172 49.40974609 -0.73828125 49.25390625 C0.16535156 49.17011719 1.06898437 49.08632812 2 49 C2 48.67 2 48.34 2 48 C-8.23 48 -18.46 48 -29 48 Z M4 48 C5 52 5 52 5 52 Z M17 49 C18 51 18 51 18 51 Z M-11 50 C-10 53 -10 53 -10 53 Z M-8 50 C-8 50.99 -8 51.98 -8 53 C-7.34 52.67 -6.68 52.34 -6 52 C-6.66 51.34 -7.32 50.68 -8 50 Z M-24 51 C-23 53 -23 53 -23 53 Z " fill="#436425" transform="translate(68,46)"/>
<path d="M0 0 C2.32590854 3.63423209 2.16265833 6.77088331 2 11 C2.66 10.67 3.32 10.34 4 10 C3.95875 9.05125 3.9175 8.1025 3.875 7.125 C4 4 4 4 6 2 C8.9375 2.0625 8.9375 2.0625 12 3 C15.84305913 8.03573265 16.23571123 13.05351413 16.5625 19.1875 C16.62727539 20.31188477 16.62727539 20.31188477 16.69335938 21.45898438 C16.79922685 23.30578375 16.9000976 25.15286834 17 27 C14.525 26.01 14.525 26.01 12 25 C12 24.34 12 23.68 12 23 C11.4225 22.731875 10.845 22.46375 10.25 22.1875 C7.96587952 20.98199197 6.04568469 19.56864477 4 18 C4.5053125 18.75925781 5.010625 19.51851562 5.53125 20.30078125 C6.1809375 21.29464844 6.830625 22.28851562 7.5 23.3125 C8.1496875 24.29863281 8.799375 25.28476562 9.46875 26.30078125 C11 29 11 29 11 32 C8.69 32 6.38 32 4 32 C4.34786708 33.97536745 4.34786708 33.97536745 5 36 C5.66 36.33 6.32 36.66 7 37 C3.125 36.125 3.125 36.125 2 35 C1.34 35.66 0.68 36.32 0 37 C-0.66 36.67 -1.32 36.34 -2 36 C-2 35.34 -2 34.68 -2 34 C-1.01 33.505 -1.01 33.505 0 33 C0 32.34 0 31.68 0 31 C-1.32 30.67 -2.64 30.34 -4 30 C-4 31.32 -4 32.64 -4 34 C-4.99 34 -5.98 34 -7 34 C-6.814375 33.505 -6.62875 33.01 -6.4375 32.5 C-5.63395123 27.90829277 -6.53285658 23.40143026 -8 19 C-9.98264795 19.65589738 -9.98264795 19.65589738 -12 21 C-12.309375 21.78375 -12.61875 22.5675 -12.9375 23.375 C-14.27448384 26.67813656 -16.13649309 27.96540299 -19 30 C-20.25527404 26.23417788 -20.26217235 22.67555674 -20.3125 18.75 C-20.34150391 18.01136719 -20.37050781 17.27273437 -20.40039062 16.51171875 C-20.46492528 10.88231073 -19.30592832 7.58794002 -16 3 C-12.875 1.9375 -12.875 1.9375 -10 2 C-7.8614515 4.1385485 -7.57344937 5.13275314 -7 8 C-6.34 6.68 -5.68 5.36 -5 4 C-5.66 4 -6.32 4 -7 4 C-7 3.01 -7 2.02 -7 1 C-4.53721199 -0.231394 -2.7204945 -0.07159196 0 0 Z " fill="#AC232B" transform="translate(52,4)"/>
<path d="M0 0 C0.1875 2.8125 0.1875 2.8125 0 6 C-0.4846875 6.4021875 -0.969375 6.804375 -1.46875 7.21875 C-3.85795969 9.99803474 -3.57283355 13.17870662 -3.6875 16.6875 C-3.72166016 17.38939453 -3.75582031 18.09128906 -3.79101562 18.81445312 C-3.87329947 20.54241387 -3.9383324 22.27118072 -4 24 C-6.31 24.66 -8.62 25.32 -11 26 C-11.04898438 26.75925781 -11.09796875 27.51851562 -11.1484375 28.30078125 C-11.22320312 29.29464844 -11.29796875 30.28851563 -11.375 31.3125 C-11.44460937 32.29863281 -11.51421875 33.28476563 -11.5859375 34.30078125 C-12 37 -12 37 -14 40 C-17.71640139 40.27028374 -20.457201 40.180933 -24 39 C-24 38.34 -24 37.68 -24 37 C-22.68 37.33 -21.36 37.66 -20 38 C-20.16371094 37.43796875 -20.32742187 36.8759375 -20.49609375 36.296875 C-21.02864997 33.86940944 -21.09898681 31.73110319 -21.0625 29.25 C-21.05347656 28.45078125 -21.04445313 27.6515625 -21.03515625 26.828125 C-21.02355469 26.22484375 -21.01195312 25.6215625 -21 25 C-23.64 25 -26.28 25 -29 25 C-29.04898438 23.91460937 -29.09796875 22.82921875 -29.1484375 21.7109375 C-29.22351986 20.26560216 -29.29906528 18.82029081 -29.375 17.375 C-29.42140625 16.30572266 -29.42140625 16.30572266 -29.46875 15.21484375 C-29.71103049 10.81341483 -30.45904653 7.17184964 -32 3 C-32 2.34 -32 1.68 -32 1 C-26.44891641 1.50464396 -26.44891641 1.50464396 -24.1875 4 C-21.34405552 6.59972067 -19.54927617 6.58481408 -15.75 6.75 C-14.67234375 6.80671875 -13.5946875 6.8634375 -12.484375 6.921875 C-11.66453125 6.94765625 -10.8446875 6.9734375 -10 7 C-9.54560547 6.06414063 -9.54560547 6.06414063 -9.08203125 5.109375 C-6.79038886 0.64191331 -5.04928818 -0.40940174 0 0 Z M-19 9 C-18 11 -18 11 -18 11 Z M-23 18 C-23 18.33 -23 18.66 -23 19 C-21.35 19 -19.7 19 -18 19 C-18 18.67 -18 18.34 -18 18 C-19.65 18 -21.3 18 -23 18 Z M-15 18 C-11 19 -11 19 -11 19 Z " fill="#444944" transform="translate(68,46)"/>
<path d="M0 0 C3.58875 -0.0928125 3.58875 -0.0928125 7.25 -0.1875 C8.37003418 -0.22846802 8.37003418 -0.22846802 9.51269531 -0.27026367 C12.56359084 -0.30842038 14.73122191 -0.1378021 17.4609375 1.26171875 C19.30841862 3.34834082 19.48962713 4.24894882 19.375 7 C19.35566406 8.0209375 19.35566406 8.0209375 19.3359375 9.0625 C19 11 19 11 17 14 C17.33 14.598125 17.66 15.19625 18 15.8125 C19 18 19 18 19 21 C19.66 21 20.32 21 21 21 C21.37125 19.7625 21.7425 18.525 22.125 17.25 C24.12333111 11.19708401 27.05301842 5.63645991 30 0 C31.65 0 33.3 0 35 0 C35.47050781 1.01320312 35.94101563 2.02640625 36.42578125 3.0703125 C37.0546429 4.42189575 37.68355166 5.77345709 38.3125 7.125 C38.7755957 8.12273438 38.7755957 8.12273438 39.24804688 9.140625 C39.55419922 9.79804687 39.86035156 10.45546875 40.17578125 11.1328125 C40.4795166 11.78540039 40.78325195 12.43798828 41.09619141 13.11035156 C41.93385773 14.86171227 42.8298836 16.58483414 43.73046875 18.3046875 C45 21 45 21 45 24 C42.6875 24.3125 42.6875 24.3125 40 24 C39.4121875 22.7934375 39.4121875 22.7934375 38.8125 21.5625 C37.27209042 18.7815042 37.27209042 18.7815042 34.59375 18.4453125 C32.05745102 18.21020613 29.54630408 18.05255037 27 18 C26.855625 18.804375 26.71125 19.60875 26.5625 20.4375 C26 23 26 23 25 24 C23.14712498 24.07226502 21.29166122 24.0838122 19.4375 24.0625 C18.42558594 24.05347656 17.41367188 24.04445313 16.37109375 24.03515625 C15.19740234 24.01775391 15.19740234 24.01775391 14 24 C13.75765625 23.36191406 13.5153125 22.72382812 13.265625 22.06640625 C12.93046875 21.24011719 12.5953125 20.41382812 12.25 19.5625 C11.92515625 18.73878906 11.6003125 17.91507813 11.265625 17.06640625 C10.03289175 14.51194599 10.03289175 14.51194599 6 14 C6 17.3 6 20.6 6 24 C4.02 24 2.04 24 0 24 C0 16.08 0 8.16 0 0 Z M6 4 C6 5.98 6 7.96 6 10 C10.14093698 10.20970559 10.14093698 10.20970559 14 9 C13.67 7.68 13.34 6.36 13 5 C10.69 4.67 8.38 4.34 6 4 Z M32 7 C30.5393715 9.64738916 30 10.89448334 30 14 C31.65 14 33.3 14 35 14 C34.34 11.69 33.68 9.38 33 7 C32.67 7 32.34 7 32 7 Z " fill="#12764B" transform="translate(195,43)"/>
<path d="M0 0 C2.01648397 4.03296795 1.1848834 9.19248663 1.1875 13.625 C1.19974609 14.69363281 1.21199219 15.76226562 1.22460938 16.86328125 C1.23757501 23.89065364 1.17675224 30.48370792 -2.625 36.625 C-4.33376026 39.57649499 -4.23400595 41.6459147 -4 45 C-5.32 45 -6.64 45 -8 45 C-8.66 46.32 -9.32 47.64 -10 49 C-14.95 49 -19.9 49 -25 49 C-25 48.34 -25 47.68 -25 47 C-26.65 46.67 -28.3 46.34 -30 46 C-30 45.67 -30 45.34 -30 45 C-24.33333333 45 -18.66666667 45 -13 45 C-16.465 44.505 -16.465 44.505 -20 44 C-18.88550765 40.53269048 -17.83686059 39.9080487 -14.5625 38.0625 C-13.96566406 37.78535156 -13.36882813 37.50820312 -12.75390625 37.22265625 C-10.27866847 35.49715641 -9.30232122 33.70898271 -8 31 C-7.46051303 28.16383011 -7.46051303 28.16383011 -7.375 25.125 C-6.98663078 17.7459849 -6.49152415 10.3728623 -6 3 C-25.305 2.505 -25.305 2.505 -45 2 C-45 1.67 -45 1.34 -45 1 C-22.725 0.505 -22.725 0.505 0 0 Z " fill="#6C6C24" transform="translate(74,43)"/>
<path d="M0 0 C1.65 0 3.3 0 5 0 C5.82011312 1.55851755 6.63076213 3.12201716 7.4375 4.6875 C7.88996094 5.55761719 8.34242187 6.42773438 8.80859375 7.32421875 C9.95991928 9.90998264 10.56320753 12.21356528 11 15 C11.66 15 12.32 15 13 15 C13.11214844 14.28457031 13.22429687 13.56914063 13.33984375 12.83203125 C14.04456005 9.80884002 15.13287798 7.43677312 16.5625 4.6875 C17.01753906 3.80449219 17.47257812 2.92148437 17.94140625 2.01171875 C18.29074219 1.34785156 18.64007813 0.68398438 19 0 C20.65 0 22.3 0 24 0 C24 7.92 24 15.84 24 24 C22.02 24 20.04 24 18 24 C17.67 21.69 17.34 19.38 17 17 C16.01 19.31 15.02 21.62 14 24 C11.6875 23.9375 11.6875 23.9375 9 23 C7.1875 19.4375 7.1875 19.4375 6 16 C5.67 18.64 5.34 21.28 5 24 C3.35 24 1.7 24 0 24 C0 16.08 0 8.16 0 0 Z " fill="#0E784B" transform="translate(110,43)"/>
<path d="M0 0 C1.65 0 3.3 0 5 0 C6.98 4.62 8.96 9.24 11 14 C13.31 9.38 15.62 4.76 18 0 C19.65 0 21.3 0 23 0 C23 7.92 23 15.84 23 24 C21.35 24 19.7 24 18 24 C17.67 21.36 17.34 18.72 17 16 C15.68 18.64 14.36 21.28 13 24 C11.68 24 10.36 24 9 24 C8.01 21.69 7.02 19.38 6 17 C5.67 19.31 5.34 21.62 5 24 C3.35 24 1.7 24 0 24 C0 16.08 0 8.16 0 0 Z " fill="#0F784B" transform="translate(137,43)"/>
<path d="M0 0 C5 0 5 0 7.45703125 2.40625 C8.23433594 3.4271875 9.01164062 4.448125 9.8125 5.5 C10.99779297 7.03140625 10.99779297 7.03140625 12.20703125 8.59375 C12.79871094 9.3878125 13.39039062 10.181875 14 11 C14.33 7.37 14.66 3.74 15 0 C16.98 0 18.96 0 21 0 C21 7.92 21 15.84 21 24 C19.35 24 17.7 24 16 24 C14.13548243 22.00801938 12.69707209 20.23044928 11.1875 18 C10.78080078 17.42765625 10.37410156 16.8553125 9.95507812 16.265625 C8.95525768 14.85411379 7.97561378 13.42834959 7 12 C6.67 15.96 6.34 19.92 6 24 C4.02 24 2.04 24 0 24 C0 16.08 0 8.16 0 0 Z " fill="#11764A" transform="translate(101,13)"/>
<path d="M0 0 C2.3925 -0.0825 4.785 -0.165 7.25 -0.25 C7.99668945 -0.28641602 8.74337891 -0.32283203 9.51269531 -0.36035156 C12.92330462 -0.41722563 14.70024673 -0.22314966 17.4609375 1.83203125 C19.54011395 4.76082041 19.43213487 6.47089858 19 10 C18.608125 10.763125 18.21625 11.52625 17.8125 12.3125 C16.52719851 16.56388186 18.37972519 20.00157989 20 24 C18.02 24 16.04 24 14 24 C13.01 21.03 12.02 18.06 11 15 C9.35 14.67 7.7 14.34 6 14 C6 17.3 6 20.6 6 24 C4.02 24 2.04 24 0 24 C0 16.08 0 8.16 0 0 Z M6 4 C6 5.98 6 7.96 6 10 C7.98 10 9.96 10 12 10 C12.33 8.35 12.66 6.7 13 5 C10.69 4.67 8.38 4.34 6 4 Z " fill="#1A764F" transform="translate(140,73)"/>
<path d="M0 0 C3.58875 -0.0928125 3.58875 -0.0928125 7.25 -0.1875 C8.37003418 -0.22846802 8.37003418 -0.22846802 9.51269531 -0.27026367 C12.56359084 -0.30842038 14.73122191 -0.1378021 17.4609375 1.26171875 C19.30841862 3.34834082 19.48962713 4.24894882 19.375 7 C19.35566406 8.0209375 19.35566406 8.0209375 19.3359375 9.0625 C19 11 19 11 17 14 C17.92824183 16.3627974 18.93097061 18.69747517 20 21 C20 21.99 20 22.98 20 24 C18.02 24 16.04 24 14 24 C13.75765625 23.36191406 13.5153125 22.72382812 13.265625 22.06640625 C12.93046875 21.24011719 12.5953125 20.41382812 12.25 19.5625 C11.92515625 18.73878906 11.6003125 17.91507813 11.265625 17.06640625 C10.03289175 14.51194599 10.03289175 14.51194599 6 14 C6 17.3 6 20.6 6 24 C4.02 24 2.04 24 0 24 C0 16.08 0 8.16 0 0 Z M6 4 C6 5.98 6 7.96 6 10 C10.14093698 10.20970559 10.14093698 10.20970559 14 9 C13.67 7.68 13.34 6.36 13 5 C10.69 4.67 8.38 4.34 6 4 Z " fill="#16754C" transform="translate(175,13)"/>
<path d="M0 0 C1.65 0 3.3 0 5 0 C6.86451757 1.99198062 8.30292791 3.76955072 9.8125 6 C10.21919922 6.57234375 10.62589844 7.1446875 11.04492188 7.734375 C12.04474232 9.14588621 13.02438622 10.57165041 14 12 C14.33 8.04 14.66 4.08 15 0 C16.65 0 18.3 0 20 0 C20 7.92 20 15.84 20 24 C14.37856253 22.87571251 13.20976258 21.33763271 10.1875 16.9375 C9.78080078 16.36966797 9.37410156 15.80183594 8.95507812 15.21679688 C7.95744838 13.82011523 6.97698467 12.41120009 6 11 C5.67 15.29 5.34 19.58 5 24 C3.35 24 1.7 24 0 24 C0 16.08 0 8.16 0 0 Z " fill="#047946" transform="translate(291,43)"/>
<path d="M0 0 C2.93423195 1.79646854 4.47205355 2.9441071 6 6 C6.41079745 10.90586951 6.62569374 15.46705034 4.75 20.0625 C1.61449315 23.53395401 -0.21324316 23.93755898 -4.9375 24.3125 C-8.69362193 24.21457503 -11.0059703 23.37761182 -14 21 C-16.39911486 17.40132771 -17.06251577 14.25888674 -17 10 C-14.11411244 0.73478204 -9.23026901 -1.38902106 0 0 Z M-8.6875 6 C-11.10800204 9.14011076 -11.35433575 9.51711646 -11 13.1875 C-10.39412068 17.21687403 -10.39412068 17.21687403 -7 19 C-3.91666667 19 -3.91666667 19 -1 18 C1.25731888 15.44824822 0.99511262 13.86070966 0.875 10.4375 C0.30537982 6.97547098 0.30537982 6.97547098 -1.9375 5.0625 C-5.22132571 3.37083221 -5.6409701 3.73281496 -8.6875 6 Z " fill="#0B7848" transform="translate(282,43)"/>
<path d="M0 0 C0.85722656 -0.00515625 1.71445313 -0.0103125 2.59765625 -0.015625 C4.9375 0.25 4.9375 0.25 7.9375 2.25 C7.6075 3.9 7.2775 5.55 6.9375 7.25 C4.95182292 6.69661458 2.96614583 6.14322917 0.98046875 5.58984375 C-1.25494159 5.05436183 -1.25494159 5.05436183 -4.0625 6.25 C-5.57184217 9.26868434 -5.23760672 11.92297229 -5.0625 15.25 C-4.0725 16.735 -4.0725 16.735 -3.0625 18.25 C0.50519552 18.98606499 0.50519552 18.98606499 3.9375 19.25 C3.9375 17.6 3.9375 15.95 3.9375 14.25 C2.2875 14.25 0.6375 14.25 -1.0625 14.25 C-1.0625 12.93 -1.0625 11.61 -1.0625 10.25 C2.2375 10.25 5.5375 10.25 8.9375 10.25 C8.9375 14.21 8.9375 18.17 8.9375 22.25 C4.27433205 24.58158397 1.05309828 24.9770001 -4.0625 24.25 C-8.15757797 22.16523303 -10.3579921 20.48802646 -12.0625 16.25 C-12.65167111 11.97277075 -12.50789482 8.29667782 -10.8125 4.3125 C-7.69735437 0.64107836 -4.71607633 -0.02845295 0 0 Z " fill="#12774B" transform="translate(145.0625,12.75)"/>
<path d="M0 0 C1.42505859 0.00580078 1.42505859 0.00580078 2.87890625 0.01171875 C5.4375 0.3125 5.4375 0.3125 8.4375 2.3125 C7.7775 3.9625 7.1175 5.6125 6.4375 7.3125 C5.715625 6.961875 4.99375 6.61125 4.25 6.25 C1.06144724 5.18714908 -0.43242077 5.1281457 -3.5625 6.3125 C-5.33328659 8.32475749 -5.59519902 9.70172899 -5.453125 12.35546875 C-5.21321595 14.34883071 -4.89257158 16.3320705 -4.5625 18.3125 C-1.9225 18.6425 0.7175 18.9725 3.4375 19.3125 C3.4375 17.6625 3.4375 16.0125 3.4375 14.3125 C2.1175 14.3125 0.7975 14.3125 -0.5625 14.3125 C-0.5625 12.9925 -0.5625 11.6725 -0.5625 10.3125 C2.4075 10.3125 5.3775 10.3125 8.4375 10.3125 C8.4375 14.6025 8.4375 18.8925 8.4375 23.3125 C2.81594473 24.71788882 -1.56254107 25.0902618 -6.9375 23 C-9.5625 21.3125 -9.5625 21.3125 -11.5625 18.3125 C-12.87060447 12.27509476 -12.7174897 8.86093016 -9.5625 3.3125 C-6.44170498 0.34360209 -4.25618473 -0.07527946 0 0 Z " fill="#0F774A" transform="translate(183.5625,42.6875)"/>
<path d="M0 0 C5.61 0 11.22 0 17 0 C17 1.65 17 3.3 17 5 C13.37 5 9.74 5 6 5 C6 6.32 6 7.64 6 9 C9.3 9 12.6 9 16 9 C16 10.65 16 12.3 16 14 C12.7 14 9.4 14 6 14 C6 15.65 6 17.3 6 19 C9.63 19 13.26 19 17 19 C17 20.65 17 22.3 17 24 C11.39 24 5.78 24 0 24 C0 16.08 0 8.16 0 0 Z " fill="#057A46" transform="translate(121,73)"/>
<path d="M0 0 C5.28 0 10.56 0 16 0 C16 1.65 16 3.3 16 5 C12.7 5 9.4 5 6 5 C6 6.32 6 7.64 6 9 C9.3 9 12.6 9 16 9 C16 10.65 16 12.3 16 14 C12.7 14 9.4 14 6 14 C6 15.65 6 17.3 6 19 C9.3 19 12.6 19 16 19 C16 20.65 16 22.3 16 24 C10.72 24 5.44 24 0 24 C0 16.08 0 8.16 0 0 Z " fill="#097848" transform="translate(215,73)"/>
<path d="M0 0 C5.28 0 10.56 0 16 0 C16 1.65 16 3.3 16 5 C12.7 5 9.4 5 6 5 C6 6.32 6 7.64 6 9 C9.3 9 12.6 9 16 9 C16 10.65 16 12.3 16 14 C12.7 14 9.4 14 6 14 C6 15.65 6 17.3 6 19 C9.3 19 12.6 19 16 19 C16 20.65 16 22.3 16 24 C10.72 24 5.44 24 0 24 C0 16.08 0 8.16 0 0 Z " fill="#1D754F" transform="translate(157,13)"/>
<path d="M0 0 C0.1875 2.8125 0.1875 2.8125 0 6 C-0.4846875 6.4021875 -0.969375 6.804375 -1.46875 7.21875 C-3.85795969 9.99803474 -3.57283355 13.17870662 -3.6875 16.6875 C-3.72166016 17.38939453 -3.75582031 18.09128906 -3.79101562 18.81445312 C-3.87329947 20.54241387 -3.9383324 22.27118072 -4 24 C-6.31 24.66 -8.62 25.32 -11 26 C-11.04898438 26.75925781 -11.09796875 27.51851562 -11.1484375 28.30078125 C-11.26058594 29.79158203 -11.26058594 29.79158203 -11.375 31.3125 C-11.44460937 32.29863281 -11.51421875 33.28476563 -11.5859375 34.30078125 C-12 37 -12 37 -14 40 C-15.65 40 -17.3 40 -19 40 C-19 35.38 -19 30.76 -19 26 C-17.35 26 -15.7 26 -14 26 C-14.33 25.01 -14.66 24.02 -15 23 C-13.35 23 -11.7 23 -10 23 C-9.67 22.01 -9.34 21.02 -9 20 C-9.66 20 -10.32 20 -11 20 C-11 19.34 -11 18.68 -11 18 C-10.01 18 -9.02 18 -8 18 C-9.9254644 15.7763932 -9.9254644 15.7763932 -13 15 C-12.34 15 -11.68 15 -11 15 C-11.66 14.34 -12.32 13.68 -13 13 C-15.1385485 10.8614515 -15.42655063 9.86724686 -16 7 C-14.02 7 -12.04 7 -10 7 C-9.731875 6.401875 -9.46375 5.80375 -9.1875 5.1875 C-6.76780696 0.73017072 -5.14601456 -0.41724442 0 0 Z " fill="#495450" transform="translate(68,46)"/>
<path d="M0 0 C0.99 0.66 1.98 1.32 3 2 C2.34 3.65 1.68 5.3 1 7 C-0.98567708 6.38151042 -2.97135417 5.76302083 -4.95703125 5.14453125 C-7.11563943 4.75631695 -7.11563943 4.75631695 -8.76171875 6.44921875 C-9.17035156 6.96097656 -9.57898438 7.47273438 -10 8 C-8.84371094 8.29003906 -8.84371094 8.29003906 -7.6640625 8.5859375 C-6.66117188 8.84632812 -5.65828125 9.10671875 -4.625 9.375 C-3.62726563 9.63023438 -2.62953125 9.88546875 -1.6015625 10.1484375 C1 11 1 11 3 13 C3.56321839 19.1954023 3.56321839 19.1954023 1.6875 21.875 C-2.18991991 24.45994661 -6.49882645 24.52542882 -11 24 C-14 22.5 -14 22.5 -16 21 C-15.67 19.68 -15.34 18.36 -15 17 C-11.37 17.33 -7.74 17.66 -4 18 C-3.67 17.34 -3.34 16.68 -3 16 C-3.69867188 15.80664062 -4.39734375 15.61328125 -5.1171875 15.4140625 C-6.02726562 15.15367188 -6.93734375 14.89328125 -7.875 14.625 C-8.77992187 14.36976562 -9.68484375 14.11453125 -10.6171875 13.8515625 C-13 13 -13 13 -15 11 C-15.41275616 7.28519457 -15.47674327 4.88538036 -13.6875 1.5625 C-9.4139402 -0.92212779 -4.82933206 -0.63408024 0 0 Z " fill="#13774B" transform="translate(116,73)"/>
<path d="M0 0 C1.2065625 0.0309375 1.2065625 0.0309375 2.4375 0.0625 C3.731674 2.62376064 5.02290784 5.18643358 6.3125 7.75 C6.67730469 8.47123047 7.04210937 9.19246094 7.41796875 9.93554688 C12.4375 19.92897727 12.4375 19.92897727 12.4375 24.0625 C10.7875 24.0625 9.1375 24.0625 7.4375 24.0625 C6.7775 22.0825 6.1175 20.1025 5.4375 18.0625 C0.4875 18.5575 0.4875 18.5575 -4.5625 19.0625 C-5.5525 21.5375 -5.5525 21.5375 -6.5625 24.0625 C-8.5425 24.0625 -10.5225 24.0625 -12.5625 24.0625 C-11.8937154 18.92121838 -9.68373277 14.48514561 -7.5625 9.8125 C-7.00949219 8.57113281 -7.00949219 8.57113281 -6.4453125 7.3046875 C-3.19924023 0.07803025 -3.19924023 0.07803025 0 0 Z M-0.5625 7.0625 C-1.2225 9.3725 -1.8825 11.6825 -2.5625 14.0625 C-0.5825 14.0625 1.3975 14.0625 3.4375 14.0625 C2.4475 11.7525 1.4575 9.4425 0.4375 7.0625 C0.1075 7.0625 -0.2225 7.0625 -0.5625 7.0625 Z " fill="#0F774A" transform="translate(216.5625,12.9375)"/>
<path d="M0 0 C2 3 2 3 2 6 C5.0745356 5.2236068 5.0745356 5.2236068 7 3 C7.99 4.485 7.99 4.485 9 6 C9 5.34 9 4.68 9 4 C10.45742463 3.91903197 11.91612807 3.86082226 13.375 3.8125 C14.18710937 3.77769531 14.99921875 3.74289063 15.8359375 3.70703125 C16.55007812 3.80371094 17.26421875 3.90039062 18 4 C18.66 4.99 19.32 5.98 20 7 C22.58380177 7.25030977 22.58380177 7.25030977 25 7 C25.495 8.485 25.495 8.485 26 10 C20.06 10.495 20.06 10.495 14 11 C14.495 11.99 14.495 11.99 15 13 C11.25044125 13.19713345 7.50034696 13.3810316 3.75 13.5625 C2.68652344 13.61857422 1.62304688 13.67464844 0.52734375 13.73242188 C-0.49746094 13.78076172 -1.52226563 13.82910156 -2.578125 13.87890625 C-3.52075195 13.9260376 -4.46337891 13.97316895 -5.43457031 14.02172852 C-7.82259456 14.00150258 -9.72674392 13.69460602 -12 13 C-11.67 14.65 -11.34 16.3 -11 18 C-11.66 18 -12.32 18 -13 18 C-13.33 16.02 -13.66 14.04 -14 12 C-15.98 12 -17.96 12 -20 12 C-20 10.68 -20 9.36 -20 8 C-17.36 8 -14.72 8 -12 8 C-11.67 6.68 -11.34 5.36 -11 4 C-3.375 2.875 -3.375 2.875 0 4 C0 2.68 0 1.36 0 0 Z " fill="#A38631" transform="translate(48,34)"/>
<path d="M0 0 C0.33 0.66 0.66 1.32 1 2 C1.99 1.67 2.98 1.34 4 1 C6.0042588 1.30668842 8.00397381 1.64364267 10 2 C14.54013006 2.21300878 19.08032682 2.18509795 23.625 2.1875 C24.8521875 2.19974609 26.079375 2.21199219 27.34375 2.22460938 C28.52195313 2.22654297 29.70015625 2.22847656 30.9140625 2.23046875 C31.9860791 2.23457764 33.0580957 2.23868652 34.16259766 2.24291992 C37.00041667 1.99996433 38.55712046 1.38005943 41 0 C41.66 0 42.32 0 43 0 C43 1.65 43 3.3 43 5 C43.99 5.33 44.98 5.66 46 6 C44.68 6 43.36 6 42 6 C42 5.34 42 4.68 42 4 C41.01 4 40.02 4 39 4 C38.34 5.32 37.68 6.64 37 8 C32.92489562 8.0247345 28.84982036 8.04287637 24.7746582 8.05493164 C23.38858275 8.05995777 22.00251259 8.06677966 20.61645508 8.07543945 C18.62323285 8.08758018 16.62997181 8.09271021 14.63671875 8.09765625 C13.43748779 8.10289307 12.23825684 8.10812988 11.00268555 8.11352539 C8 8 8 8 5 7 C1.67902727 6.73038495 -1.64159564 6.55500564 -4.96875 6.37890625 C-8 6 -8 6 -11 4 C-10.67 3.01 -10.34 2.02 -10 1 C-8.906875 1.020625 -7.81375 1.04125 -6.6875 1.0625 C-3.05615809 1.18544452 -3.05615809 1.18544452 0 0 Z M22 3 C23 6 23 6 23 6 Z M25 3 C25 3.99 25 4.98 25 6 C25.66 5.67 26.32 5.34 27 5 C26.34 4.34 25.68 3.68 25 3 Z M9 4 C10 6 10 6 10 6 Z " fill="#2B2F2D" transform="translate(35,93)"/>
<path d="M0 0 C1.98 0 3.96 0 6 0 C8.31 4.62 10.62 9.24 13 14 C14.98 9.38 16.96 4.76 19 0 C20.98 0 22.96 0 25 0 C22.49415892 8.40193774 18.78974143 16.11941439 15 24 C13.35 24 11.7 24 10 24 C8.32724698 20.37777789 6.66283749 16.7517834 5 13.125 C4.28457031 11.57619141 4.28457031 11.57619141 3.5546875 9.99609375 C3.10351562 9.00996094 2.65234375 8.02382812 2.1875 7.0078125 C1.76855469 6.09660645 1.34960938 5.18540039 0.91796875 4.24658203 C0 2 0 2 0 0 Z " fill="#0F7549" transform="translate(159,73)"/>
<path d="M0 0 C0.9590625 -0.01675781 1.918125 -0.03351563 2.90625 -0.05078125 C5.84780511 0.36121367 6.70423739 1.01319585 8.5 3.3125 C7.51 4.6325 6.52 5.9525 5.5 7.3125 C4.943125 6.961875 4.38625 6.61125 3.8125 6.25 C0.94074289 5.08577415 -0.57133328 5.4418153 -3.5 6.3125 C-5.08894072 7.90144072 -4.66998411 9.56051424 -4.6875 11.75 C-4.70167969 12.55308594 -4.71585938 13.35617188 -4.73046875 14.18359375 C-4.70162356 16.52880633 -4.70162356 16.52880633 -2.5 18.3125 C-0.27871445 18.33558597 -0.27871445 18.33558597 2.125 17.9375 C2.94226563 17.82664062 3.75953125 17.71578125 4.6015625 17.6015625 C5.22804687 17.50617188 5.85453125 17.41078125 6.5 17.3125 C7.16 18.6325 7.82 19.9525 8.5 21.3125 C4.39826183 24.29558231 1.53733161 24.8522141 -3.5 24.3125 C-7.21615989 22.62333641 -9.33904991 20.74926526 -11.5 17.3125 C-12.25838039 12.73991234 -12.04600504 8.56051151 -10.1875 4.3125 C-7.04622538 0.58950785 -4.6873504 0.01890061 0 0 Z " fill="#11764A" transform="translate(204.5,72.6875)"/>
<path d="M0 0 C6.6 0 13.2 0 20 0 C20 1.65 20 3.3 20 5 C17.69 5 15.38 5 13 5 C13 11.27 13 17.54 13 24 C11.02 24 9.04 24 7 24 C7 17.73 7 11.46 7 5 C4.69 5 2.38 5 0 5 C0 3.35 0 1.7 0 0 Z " fill="#0F7749" transform="translate(236,43)"/>
<path d="M0 0 C5.53314944 0.93210761 10.36045942 2.81837061 15 6 C16.65175362 8.37439583 17.22282286 10.1688547 18 13 C15.53721199 14.231394 13.7204945 14.07159196 11 14 C11.33 12.02 11.66 10.04 12 8 C10.02 8 8.04 8 6 8 C5.67 8.66 5.34 9.32 5 10 C4.01 10 3.02 10 2 10 C1.34 10.66 0.68 11.32 0 12 C0 11.01 0 10.02 0 9 C-9.24 9 -18.48 9 -28 9 C-28 8.34 -28 7.68 -28 7 C-25 5 -25 5 -21 5 C-21 5.66 -21 6.32 -21 7 C-16.05 6.67 -11.1 6.34 -6 6 C-5.67 4.35 -5.34 2.7 -5 1 C-4.67 1.66 -4.34 2.32 -4 3 C-2.68 3 -1.36 3 0 3 C0 2.01 0 1.02 0 0 Z M15 10 C16 12 16 12 16 12 Z " fill="#2A4C33" transform="translate(70,85)"/>
<path d="M0 0 C0.33 0.66 0.66 1.32 1 2 C1.99 2 2.98 2 4 2 C4.33 1.34 4.66 0.68 5 0 C5.33 0.66 5.66 1.32 6 2 C6.66 1.34 7.32 0.68 8 0 C8.33 0.99 8.66 1.98 9 3 C9.66 3 10.32 3 11 3 C12.6875 4.8125 12.6875 4.8125 14 7 C13.67 7.99 13.34 8.98 13 10 C12.030625 10.28875 11.06125 10.5775 10.0625 10.875 C9.051875 11.24625 8.04125 11.6175 7 12 C5.89363605 14.39068734 5.89363605 14.39068734 5 17 C2.375 19.3125 2.375 19.3125 0 21 C-1.29521242 17.11436275 -1.14503464 13.42199731 -1.125 9.375 C-1.12886719 8.58609375 -1.13273437 7.7971875 -1.13671875 6.984375 C-1.12665394 1.12665394 -1.12665394 1.12665394 0 0 Z " fill="#8E1F24" transform="translate(33,13)"/>
<path d="M0 0 C1.98 0 3.96 0 6 0 C6 7.92 6 15.84 6 24 C4.02 24 2.04 24 0 24 C0 16.08 0 8.16 0 0 Z " fill="#15754C" transform="translate(257,43)"/>
<path d="M0 0 C1.98 0 3.96 0 6 0 C6 7.92 6 15.84 6 24 C4.02 24 2.04 24 0 24 C0 16.08 0 8.16 0 0 Z " fill="#1D734E" transform="translate(163,43)"/>
<path d="M0 0 C1.98 0 3.96 0 6 0 C6 7.92 6 15.84 6 24 C4.02 24 2.04 24 0 24 C0 16.08 0 8.16 0 0 Z " fill="#17764B" transform="translate(101,43)"/>
<path d="M0 0 C1.98 0 3.96 0 6 0 C6 7.92 6 15.84 6 24 C4.02 24 2.04 24 0 24 C0 16.08 0 8.16 0 0 Z " fill="#16754C" transform="translate(125,13)"/>
<path d="M0 0 C1.98 0 3.96 0 6 0 C6 7.92 6 15.84 6 24 C4.02 24 2.04 24 0 24 C0 16.08 0 8.16 0 0 Z " fill="#13764A" transform="translate(197,13)"/>
<path d="M0 0 C1.32 0.33 2.64 0.66 4 1 C4.33 2.32 4.66 3.64 5 5 C5.66 4.67 6.32 4.34 7 4 C7.103125 4.639375 7.20625 5.27875 7.3125 5.9375 C7.6528125 6.9584375 7.6528125 6.9584375 8 8 C8.99 8.33 9.98 8.66 11 9 C10 11 10 11 8 12 C8.99 13.485 8.99 13.485 10 15 C9.34 15.66 8.68 16.32 8 17 C7.01 17 6.02 17 5 17 C4.67 17.66 4.34 18.32 4 19 C2.68 18.67 1.36 18.34 0 18 C0 17.34 0 16.68 0 16 C-0.66 15.67 -1.32 15.34 -2 15 C-1.01 15 -0.02 15 1 15 C1 14.34 1 13.68 1 13 C0.21625 12.690625 -0.5675 12.38125 -1.375 12.0625 C-4 11 -4 11 -6 10 C-6 8 -6 8 -4.1875 5.875 C-2 4 -2 4 1 4 C0.67 2.68 0.34 1.36 0 0 Z " fill="#31302D" transform="translate(49,53)"/>
<path d="M0 0 C1.39543043 2.79086086 0.90230506 4.84592329 0.625 7.9375 C0.48964844 9.52884766 0.48964844 9.52884766 0.3515625 11.15234375 C0 14 0 14 -1 17 C-2.32 17 -3.64 17 -5 17 C-7.36784134 11.4286086 -6.83691592 9.69532734 -6 3 C-25.305 2.505 -25.305 2.505 -45 2 C-45 1.67 -45 1.34 -45 1 C-22.725 0.505 -22.725 0.505 0 0 Z " fill="#BAB248" transform="translate(74,43)"/>
<path d="M0 0 C5.61 0 11.22 0 17 0 C17 1.65 17 3.3 17 5 C13.37 5 9.74 5 6 5 C6 6.32 6 7.64 6 9 C9.3 9 12.6 9 16 9 C16 10.65 16 12.3 16 14 C13.03 14 10.06 14 7 14 C11 12 11 12 14 12 C14 11.34 14 10.68 14 10 C11.03 10 8.06 10 5 10 C5 8.02 5 6.04 5 4 C8.63 4 12.26 4 16 4 C16 3.01 16 2.02 16 1 C11.05 1 6.1 1 1 1 C1 8.26 1 15.52 1 23 C5.95 23 10.9 23 16 23 C16 22.01 16 21.02 16 20 C12.37 20 8.74 20 5 20 C5 17.69 5 15.38 5 13 C5.33 13 5.66 13 6 13 C6 14.98 6 16.96 6 19 C9.63 19 13.26 19 17 19 C17 20.65 17 22.3 17 24 C11.39 24 5.78 24 0 24 C0 16.08 0 8.16 0 0 Z " fill="#277453" transform="translate(121,73)"/>
<path d="M0 0 C2.413125 -0.0825 4.82625 -0.165 7.3125 -0.25 C8.06829346 -0.28641602 8.82408691 -0.32283203 9.6027832 -0.36035156 C12.82129663 -0.41379949 14.55434129 -0.39691479 17 1.78125 C18.47163593 5.04644221 17.72443066 7.57541868 17 11 C16.01 10.67 15.02 10.34 14 10 C13.4375 8.0625 13.4375 8.0625 13 6 C12.34 5.34 11.68 4.68 11 4 C11.66 3.67 12.32 3.34 13 3 C9.37 2.67 5.74 2.34 2 2 C2 8.93 2 15.86 2 23 C2.99 23 3.98 23 5 23 C5 20.36 5 17.72 5 15 C5.33 15 5.66 15 6 15 C6 17.97 6 20.94 6 24 C4.02 24 2.04 24 0 24 C0 16.08 0 8.16 0 0 Z " fill="#1E734E" transform="translate(175,13)"/>
<path d="M0 0 C1.65 0 3.3 0 5 0 C5 7.92 5 15.84 5 24 C3.35 24 1.7 24 0 24 C0 16.08 0 8.16 0 0 Z " fill="#067947" transform="translate(185,73)"/>
<path d="M0 0 C1.98 0 3.96 0 6 0 C5.67 3.3 5.34 6.6 5 10 C6.32 10 7.64 10 9 10 C9 10.66 9 11.32 9 12 C8.01 12.33 7.02 12.66 6 13 C5.19787372 14.87387216 5.19787372 14.87387216 4.8125 17.0625 C4.65394531 17.79597656 4.49539062 18.52945313 4.33203125 19.28515625 C4.22246094 19.85105469 4.11289063 20.41695312 4 21 C2.68 21.33 1.36 21.66 0 22 C0 14.74 0 7.48 0 0 Z " fill="#047A46" transform="translate(141,74)"/>
<path d="M0 0 C1.65 0 3.3 0 5 0 C5.47050781 1.01320312 5.94101563 2.02640625 6.42578125 3.0703125 C7.0546429 4.42189575 7.68355166 5.77345709 8.3125 7.125 C8.62123047 7.79015625 8.92996094 8.4553125 9.24804688 9.140625 C9.55419922 9.79804687 9.86035156 10.45546875 10.17578125 11.1328125 C10.63138428 12.11169434 10.63138428 12.11169434 11.09619141 13.11035156 C11.93385773 14.86171227 12.8298836 16.58483414 13.73046875 18.3046875 C15 21 15 21 15 24 C12.8125 24.5 12.8125 24.5 10 24 C7.6018833 21.16114834 5 17.81204169 5 14 C4.35466922 11.66067594 3.68939809 9.32671854 3 7 C3.66 7.33 4.32 7.66 5 8 C5.15811388 4.94729537 5.15811388 4.94729537 4 2 C2.35 2.33 0.7 2.66 -1 3 C-0.67 2.01 -0.34 1.02 0 0 Z " fill="#13774D" transform="translate(225,43)"/>
<path d="M0 0 C0.66 0 1.32 0 2 0 C2 0.66 2 1.32 2 2 C-4.6 2.33 -11.2 2.66 -18 3 C-2.16 3.495 -2.16 3.495 14 4 C14.495 4.99 14.495 4.99 15 6 C11.25044125 6.19713345 7.50034696 6.3810316 3.75 6.5625 C2.68652344 6.61857422 1.62304688 6.67464844 0.52734375 6.73242188 C-0.49746094 6.78076172 -1.52226563 6.82910156 -2.578125 6.87890625 C-3.52075195 6.9260376 -4.46337891 6.97316895 -5.43457031 7.02172852 C-7.82259456 7.00150258 -9.72674392 6.69460602 -12 6 C-11.67 7.65 -11.34 9.3 -11 11 C-11.66 11 -12.32 11 -13 11 C-13.33 9.02 -13.66 7.04 -14 5 C-15.98 5 -17.96 5 -20 5 C-20 3.68 -20 2.36 -20 1 C-6.52955767 -1.45101282 -6.52955767 -1.45101282 0 0 Z " fill="#5F5E1C" transform="translate(48,41)"/>
<path d="M0 0 C0.99 0 1.98 0 3 0 C3 2.64 3 5.28 3 8 C5.97 8 8.94 8 12 8 C12.33 8.99 12.66 9.98 13 11 C9.7 11 6.4 11 3 11 C3 13.31 3 15.62 3 18 C6.3 18 9.6 18 13 18 C13 18.66 13 19.32 13 20 C8.71 20 4.42 20 0 20 C0 13.4 0 6.8 0 0 Z " fill="#037A46" transform="translate(159,15)"/>
<path d="M0 0 C1.98 0 3.96 0 6 0 C6.22660627 6.34497555 5.90176419 12.19647163 3 18 C0.69 18 -1.62 18 -4 18 C-3.525625 17.2575 -3.05125 16.515 -2.5625 15.75 C-0.07656914 10.89539916 -0.2508275 5.34522062 0 0 Z " fill="#9F9528" transform="translate(69,61)"/>
<path d="M0 0 C1.32 0 2.64 0 4 0 C4 1.65 4 3.3 4 5 C4.99 5.33 5.98 5.66 7 6 C5.68 6 4.36 6 3 6 C3 5.34 3 4.68 3 4 C2.01 4 1.02 4 0 4 C-0.66 5.32 -1.32 6.64 -2 8 C-5.96 8 -9.92 8 -14 8 C-14.99 6.02 -15.98 4.04 -17 2 C-15.41058594 2.03480469 -15.41058594 2.03480469 -13.7890625 2.0703125 C-12.4010487 2.08906944 -11.0130273 2.10726972 -9.625 2.125 C-8.92632812 2.14175781 -8.22765625 2.15851563 -7.5078125 2.17578125 C-5.67102514 2.19344267 -3.83398037 2.10303261 -2 2 C-1.34 1.34 -0.68 0.68 0 0 Z M-14 3 C-14 3.99 -14 4.98 -14 6 C-13.34 5.67 -12.68 5.34 -12 5 C-12.66 4.34 -13.32 3.68 -14 3 Z " fill="#303735" transform="translate(74,93)"/>
<path d="M0 0 C0.99 0 1.98 0 3 0 C5.12168487 3.49453978 5.12168487 3.49453978 4.59375 5.6875 C4.3978125 6.450625 4.201875 7.21375 4 8 C3.77882441 10.4138176 3.59427758 12.83114597 3.4375 15.25 C3.31181641 17.14492188 3.31181641 17.14492188 3.18359375 19.078125 C3.12300781 20.04234375 3.06242187 21.0065625 3 22 C1.68 22 0.36 22 -1 22 C-1.02887814 18.52085059 -1.04675687 15.04173169 -1.0625 11.5625 C-1.07087891 10.56927734 -1.07925781 9.57605469 -1.08789062 8.55273438 C-1.09111328 7.60849609 -1.09433594 6.66425781 -1.09765625 5.69140625 C-1.10289307 4.81685791 -1.10812988 3.94230957 -1.11352539 3.04125977 C-1 1 -1 1 0 0 Z " fill="#057947" transform="translate(103,14)"/>
<path d="M0 0 C1.98 0 3.96 0 6 0 C6 5.28 6 10.56 6 16 C4.02 16 2.04 16 0 16 C0 10.72 0 5.44 0 0 Z " fill="#A59827" transform="translate(28,56)"/>
<path d="M0 0 C0.99 0 1.98 0 3 0 C3.33 2.97 3.66 5.94 4 9 C5.65 9.33 7.3 9.66 9 10 C8.67 10.66 8.34 11.32 8 12 C5.9375 12.625 5.9375 12.625 4 13 C3.67 15.64 3.34 18.28 3 21 C1.68 20.67 0.36 20.34 -1 20 C-1.02888514 16.85418577 -1.04675923 13.70840531 -1.0625 10.5625 C-1.07087891 9.66466797 -1.07925781 8.76683594 -1.08789062 7.84179688 C-1.09111328 6.98779297 -1.09433594 6.13378906 -1.09765625 5.25390625 C-1.10551147 4.06776733 -1.10551147 4.06776733 -1.11352539 2.85766602 C-1 1 -1 1 0 0 Z " fill="#057A46" transform="translate(197,45)"/>
<path d="M0 0 C5.28 0 10.56 0 16 0 C16 0.33 16 0.66 16 1 C11.05 1 6.1 1 1 1 C1 8.26 1 15.52 1 23 C3.31 23 5.62 23 8 23 C8 22.34 8 21.68 8 21 C7.01 20.67 6.02 20.34 5 20 C5 19.67 5 19.34 5 19 C8.63 19 12.26 19 16 19 C16 20.65 16 22.3 16 24 C10.72 24 5.44 24 0 24 C0 16.08 0 8.16 0 0 Z " fill="#21734F" transform="translate(215,73)"/>
<path d="M0 0 C3.96 0 7.92 0 12 0 C11.67 0.66 11.34 1.32 11 2 C8.67843403 2.40729228 6.3431213 2.74438677 4 3 C3.67 4.98 3.34 6.96 3 9 C3.66 9 4.32 9 5 9 C5.33 9.99 5.66 10.98 6 12 C5.01 12.495 5.01 12.495 4 13 C3.53476937 14.89533342 3.53476937 14.89533342 3.375 17.0625 C3.25125 18.361875 3.1275 19.66125 3 21 C2.01 21 1.02 21 0 21 C0 14.07 0 7.14 0 0 Z " fill="#037B46" transform="translate(177,15)"/>
<path d="M0 0 C1.3271261 3.9813783 1.06915913 7.85045227 1 12 C1.66 12 2.32 12 3 12 C3 10.02 3 8.04 3 6 C4.20628008 8.33214148 5.1654738 10.49642139 6 13 C7.423125 13.2165625 7.423125 13.2165625 8.875 13.4375 C12 14 12 14 14 15 C13 16 13 16 10.4375 16.0625 C9.633125 16.041875 8.82875 16.02125 8 16 C8.33 16.66 8.66 17.32 9 18 C11.52733235 18.65555119 11.52733235 18.65555119 14 19 C14 19.33 14 19.66 14 20 C5.33274336 20.44070796 5.33274336 20.44070796 1 17 C-1.38948428 13.41577358 -1.96014208 10.23291117 -2 6 C-1.0625 2.5 -1.0625 2.5 0 0 Z " fill="#18744C" transform="translate(267,47)"/>
<path d="M0 0 C1.65 0 3.3 0 5 0 C5 7.92 5 15.84 5 24 C3.35 24 1.7 24 0 24 C0 21.03 0 18.06 0 15 C0.33 15 0.66 15 1 15 C1 17.64 1 20.28 1 23 C1.99 23 2.98 23 4 23 C3.8858134 21.06183265 3.75826577 19.12444901 3.625 17.1875 C3.52058594 15.56908203 3.52058594 15.56908203 3.4140625 13.91796875 C3.18804267 10.81373814 3.18804267 10.81373814 1 8 C-0.32 8.33 -1.64 8.66 -3 9 C-2.44271087 5.65626525 -1.64826111 2.96687001 0 0 Z " fill="#1B7950" transform="translate(155,43)"/>
<path d="M0 0 C2.04296875 0.4609375 2.04296875 0.4609375 4.1875 1.375 C4.90292969 1.67148437 5.61835937 1.96796875 6.35546875 2.2734375 C7.16951172 2.63308594 7.16951172 2.63308594 8 3 C7.01 4.485 7.01 4.485 6 6 C5.34 6 4.68 6 4 6 C4.061875 6.763125 4.12375 7.52625 4.1875 8.3125 C4 11 4 11 2.6875 12.75 C1 14 1 14 -2 15 C-1.98839844 14.39671875 -1.97679687 13.7934375 -1.96484375 13.171875 C-1.95582031 12.37265625 -1.94679687 11.5734375 -1.9375 10.75 C-1.92589844 9.96109375 -1.91429687 9.1721875 -1.90234375 8.359375 C-1.99614694 6.09308998 -2.36758937 4.1711105 -3 2 C-2.01 1.34 -1.02 0.68 0 0 Z " fill="#94282E" transform="translate(36,16)"/>
<path d="M0 0 C0.99 0.33 1.98 0.66 3 1 C2.649375 1.61875 2.29875 2.2375 1.9375 2.875 C1.628125 3.57625 1.31875 4.2775 1 5 C1.33 5.66 1.66 6.32 2 7 C1.67 7.66 1.34 8.32 1 9 C1.66 9 2.32 9 3 9 C3.66 8.01 4.32 7.02 5 6 C5.33 6.804375 5.66 7.60875 6 8.4375 C7.68921133 11.12410424 7.68921133 11.12410424 9.98046875 11.5546875 C11.97887376 11.7881295 13.99043533 11.90116895 16 12 C16.33 11.34 16.66 10.68 17 10 C17 10.99 17 11.98 17 13 C14.69 13 12.38 13 10 13 C10.34786708 14.97536745 10.34786708 14.97536745 11 17 C11.66 17.33 12.32 17.66 13 18 C9.125 17.125 9.125 17.125 8 16 C7.34 16.66 6.68 17.32 6 18 C5.34 17.67 4.68 17.34 4 17 C4 16.34 4 15.68 4 15 C4.66 14.67 5.32 14.34 6 14 C6 13.34 6 12.68 6 12 C4.68 11.67 3.36 11.34 2 11 C2 12.32 2 13.64 2 15 C1.01 15 0.02 15 -1 15 C-0.814375 14.505 -0.62875 14.01 -0.4375 13.5 C-0.0047921 11.02738344 -0.14232833 9.3959268 -0.5 6.9375 C-1 3 -1 3 0 0 Z " fill="#881F1E" transform="translate(46,23)"/>
<path d="M0 0 C5 0 5 0 6.58203125 1.53125 C6.98808594 2.1809375 7.39414062 2.830625 7.8125 3.5 C8.23144531 4.1496875 8.65039062 4.799375 9.08203125 5.46875 C9.38496094 5.9740625 9.68789063 6.479375 10 7 C9.01 7.495 9.01 7.495 8 8 C8 7.34 8 6.68 8 6 C6.02 6.66 4.04 7.32 2 8 C1.67 12.95 1.34 17.9 1 23 C2.32 23.33 3.64 23.66 5 24 C3.35 24 1.7 24 0 24 C0 16.08 0 8.16 0 0 Z " fill="#1A764E" transform="translate(291,43)"/>
<path d="M0 0 C0.33 1.32 0.66 2.64 1 4 C0.01 4 -0.98 4 -2 4 C-2 4.99 -2 5.98 -2 7 C-1.34 7.33 -0.68 7.66 0 8 C-3 10 -3 10 -5 11 C-5 9.35 -5 7.7 -5 6 C-5.99 6.33 -6.98 6.66 -8 7 C-8 7.99 -8 8.98 -8 10 C-7.01 10.99 -6.02 11.98 -5 13 C-7.97 12.67 -10.94 12.34 -14 12 C-13.01 11.67 -12.02 11.34 -11 11 C-11.226875 10.236875 -11.45375 9.47375 -11.6875 8.6875 C-12 6 -12 6 -11 4.375 C-7.75870015 2.14660635 -4.00149587 0 0 0 Z " fill="#3A5B4B" transform="translate(29,86)"/>
<path d="M0 0 C1.98 0 3.96 0 6 0 C6.027193 1.58323688 6.04648306 3.16661062 6.0625 4.75 C6.07410156 5.63171875 6.08570313 6.5134375 6.09765625 7.421875 C6.00826198 9.7818838 5.66912821 11.74498524 5 14 C3.35 14 1.7 14 0 14 C0 9.38 0 4.76 0 0 Z " fill="#2593C3" transform="translate(49,72)"/>
<path d="M0 0 C0.66 0 1.32 0 2 0 C2 4.29 2 8.58 2 13 C-0.31 13.66 -2.62 14.32 -5 15 C-5.04898438 15.77085938 -5.09796875 16.54171875 -5.1484375 17.3359375 C-5.22320312 18.33882812 -5.29796875 19.34171875 -5.375 20.375 C-5.47941406 21.87160156 -5.47941406 21.87160156 -5.5859375 23.3984375 C-6 26 -6 26 -8 28 C-7.98839844 27.09636719 -7.97679687 26.19273438 -7.96484375 25.26171875 C-7.95582031 24.08222656 -7.94679687 22.90273437 -7.9375 21.6875 C-7.92589844 20.51574219 -7.91429687 19.34398437 -7.90234375 18.13671875 C-7.85100102 14.96940805 -7.85100102 14.96940805 -9 12 C-7.02 12 -5.04 12 -3 12 C-0.60926555 8.17482487 -0.44033448 4.40334476 0 0 Z " fill="#435E58" transform="translate(62,57)"/>
<path d="M0 0 C0.365625 5.484375 0.365625 5.484375 -1.21875 7.71875 C-3.60522425 9.43533674 -4.82737916 9.14346129 -7.6875 8.6875 C-8.49574219 8.56761719 -9.30398437 8.44773437 -10.13671875 8.32421875 C-10.75160156 8.21722656 -11.36648437 8.11023437 -12 8 C-11.34 7.67 -10.68 7.34 -10 7 C-9.690625 6.38125 -9.38125 5.7625 -9.0625 5.125 C-6.81511405 0.6302281 -5.0411061 -0.40873833 0 0 Z " fill="#245866" transform="translate(68,46)"/>
<path d="M0 0 C0.66 0.33 1.32 0.66 2 1 C3.09506492 4.28519475 3.09960608 6.73663415 3.0625 10.1875 C3.05347656 11.27417969 3.04445312 12.36085938 3.03515625 13.48046875 C3.02355469 14.31191406 3.01195312 15.14335938 3 16 C2.01 16 1.02 16 0 16 C-0.33 13.36 -0.66 10.72 -1 8 C-1.99 7.67 -2.98 7.34 -4 7 C-4 5.35 -4 3.7 -4 2 C-2.125 0.9375 -2.125 0.9375 0 0 Z " fill="#057B49" transform="translate(156,50)"/>
<path d="M0 0 C1.27875 -0.061875 2.5575 -0.12375 3.875 -0.1875 C4.95394531 -0.23970703 4.95394531 -0.23970703 6.0546875 -0.29296875 C6.69664062 -0.19628906 7.33859375 -0.09960938 8 0 C10.4294516 3.6441774 10.16179575 5.71241272 10 10 C9.01 10.33 8.02 10.66 7 11 C6.67 11.99 6.34 12.98 6 14 C5.34 14 4.68 14 4 14 C3.67 13.01 3.34 12.02 3 11 C3.66 10.01 4.32 9.02 5 8 C5.38499891 6.34450469 5.72793135 4.6777567 6 3 C5.38125 2.87625 4.7625 2.7525 4.125 2.625 C2 2 2 2 0 0 Z " fill="#097748" transform="translate(148,75)"/>
<path d="M0 0 C4.12751449 0.60698743 7.3321148 2.03810791 11 4 C11 4.66 11 5.32 11 6 C8.69 6 6.38 6 4 6 C4 5.01 4 4.02 4 3 C3.34 3 2.68 3 2 3 C1.67 4.32 1.34 5.64 1 7 C-1.31 7 -3.62 7 -6 7 C-5.67 5.02 -5.34 3.04 -5 1 C-4.67 1.66 -4.34 2.32 -4 3 C-2.68 3 -1.36 3 0 3 C0 2.01 0 1.02 0 0 Z " fill="#337C45" transform="translate(70,85)"/>
<path d="M0 0 C0 0.66 0 1.32 0 2 C7.59 1.67 15.18 1.34 23 1 C23 1.66 23 2.32 23 3 C19.58934861 4.03974499 16.47735158 4.11508506 12.921875 4.09765625 C11.76171875 4.09443359 10.6015625 4.09121094 9.40625 4.08789062 C8.1996875 4.07951172 6.993125 4.07113281 5.75 4.0625 C4.52796875 4.05798828 3.3059375 4.05347656 2.046875 4.04882812 C-0.96879946 4.03704815 -3.98437498 4.02059853 -7 4 C-7 3.34 -7 2.68 -7 2 C-4 0 -4 0 0 0 Z " fill="#214226" transform="translate(49,90)"/>
<path d="M0 0 C6.6 0 13.2 0 20 0 C20 1.65 20 3.3 20 5 C18.02 5 16.04 5 14 5 C14 4.67 14 4.34 14 4 C15.65 4 17.3 4 19 4 C19 3.34 19 2.68 19 2 C14.05 2 9.1 2 4 2 C4 2.66 4 3.32 4 4 C4.66 4.33 5.32 4.66 6 5 C4.02 5 2.04 5 0 5 C0 3.35 0 1.7 0 0 Z " fill="#1C754F" transform="translate(236,43)"/>
<path d="M0 0 C3.125 0.375 3.125 0.375 6 1 C6.73080266 2.97746603 7.39421747 4.98072489 8 7 C7.67 7.66 7.34 8.32 7 9 C4.4375 9.625 4.4375 9.625 2 10 C2.66 8.02 3.32 6.04 4 4 C3.01 3.67 2.02 3.34 1 3 C1 5.64 1 8.28 1 11 C-1.79908133 8.20091867 -1.72362983 5.86918237 -2 2 C-1.34 1.34 -0.68 0.68 0 0 Z " fill="#A92A36" transform="translate(58,6)"/>
<path d="M0 0 C1.62418745 -0.08090971 3.24951745 -0.13914995 4.875 -0.1875 C5.77992187 -0.22230469 6.68484375 -0.25710937 7.6171875 -0.29296875 C8.79667969 -0.14794922 8.79667969 -0.14794922 10 0 C10.66 0.99 11.32 1.98 12 3 C12.99 2.67 13.98 2.34 15 2 C14.67 2.99 14.34 3.98 14 5 C12.06280622 5.05406122 10.12518079 5.09282025 8.1875 5.125 C7.10855469 5.14820312 6.02960937 5.17140625 4.91796875 5.1953125 C2 5 2 5 -1 3 C-0.67 2.01 -0.34 1.02 0 0 Z " fill="#2E3536" transform="translate(25,94)"/>
<path d="M0 0 C1.32 0.33 2.64 0.66 4 1 C3.67 2.32 3.34 3.64 3 5 C3.99 4.67 4.98 4.34 6 4 C6.33 2.68 6.66 1.36 7 0 C7.66 2.64 8.32 5.28 9 8 C7.68 8.33 6.36 8.66 5 9 C4.01 9.33 3.02 9.66 2 10 C1.34 9.67 0.68 9.34 0 9 C-0.33 9.66 -0.66 10.32 -1 11 C-1.33 9.68 -1.66 8.36 -2 7 C-1.67 7 -1.34 7 -1 7 C-0.67 4.69 -0.34 2.38 0 0 Z " fill="#8D1B1D" transform="translate(59,9)"/>
<path d="M0 0 C1.65 0 3.3 0 5 0 C5 7.92 5 15.84 5 24 C3.35 23.67 1.7 23.34 0 23 C-0.33 22.34 -0.66 21.68 -1 21 C0.32 21.33 1.64 21.66 3 22 C3 15.73 3 9.46 3 3 C2.67 3 2.34 3 2 3 C1.67 5.64 1.34 8.28 1 11 C0.67 11 0.34 11 0 11 C0 7.37 0 3.74 0 0 Z " fill="#247050" transform="translate(306,43)"/>
<path d="M0 0 C3.3 0 6.6 0 10 0 C10 1.65 10 3.3 10 5 C6.7 5 3.4 5 0 5 C-0.33 5.99 -0.66 6.98 -1 8 C-0.67 6.02 -0.34 4.04 0 2 C0.66 2 1.32 2 2 2 C1.34 1.34 0.68 0.68 0 0 Z " fill="#17754C" transform="translate(221,82)"/>
<path d="M0 0 C1.98 0 3.96 0 6 0 C6 7.92 6 15.84 6 24 C4.35 24 2.7 24 1 24 C0.67 23.01 0.34 22.02 0 21 C1.65 21.33 3.3 21.66 5 22 C5 15.07 5 8.14 5 1 C3.68 1 2.36 1 1 1 C1 4.3 1 7.6 1 11 C0.67 11 0.34 11 0 11 C0 7.37 0 3.74 0 0 Z " fill="#217651" transform="translate(116,13)"/>
<path d="M0 0 C0.66 0 1.32 0 2 0 C2 3.63 2 7.26 2 11 C2.66 11 3.32 11 4 11 C5.625 13 5.625 13 7 15 C6.67 15.33 6.34 15.66 6 16 C4.02 16 2.04 16 0 16 C0 10.72 0 5.44 0 0 Z " fill="#4E5146" transform="translate(39,55)"/>
<path d="M0 0 C1.65 0 3.3 0 5 0 C5.66 2.97 6.32 5.94 7 9 C5.68 9.33 4.36 9.66 3 10 C2.896875 9.360625 2.79375 8.72125 2.6875 8.0625 C2.460625 7.381875 2.23375 6.70125 2 6 C1.01 5.67 0.02 5.34 -1 5 C-0.67 3.35 -0.34 1.7 0 0 Z " fill="#0F774A" transform="translate(215,14)"/>
<path d="M0 0 C3.66075376 -0.3327958 5.39500988 -0.46170299 8.375 1.8125 C10 4 10 4 10 7 C9.01 7 8.02 7 7 7 C7.33 8.32 7.66 9.64 8 11 C2.19794344 5.35475578 2.19794344 5.35475578 0 2 C0 1.34 0 0.68 0 0 Z " fill="#13764B" transform="translate(296,51)"/>
<path d="M0 0 C2 3 2 3 2 5 C1.34 5 0.68 5 0 5 C0 5.99 0 6.98 0 8 C-4.75 8.125 -4.75 8.125 -7 7 C-8.66619446 6.9603287 -10.33391013 6.95615553 -12 7 C-11.67 6.01 -11.34 5.02 -11 4 C-3.375 2.875 -3.375 2.875 0 4 C0 2.68 0 1.36 0 0 Z " fill="#924F2C" transform="translate(48,34)"/>
<path d="M0 0 C2.5 2.25 2.5 2.25 5 5 C5 6.32 5 7.64 5 9 C3.72125 9.061875 2.4425 9.12375 1.125 9.1875 C0.40570313 9.22230469 -0.31359375 9.25710937 -1.0546875 9.29296875 C-1.69664063 9.19628906 -2.33859375 9.09960938 -3 9 C-3.66 8.01 -4.32 7.02 -5 6 C-3.35 5.34 -1.7 4.68 0 4 C0 2.68 0 1.36 0 0 Z " fill="#A52328" transform="translate(57,26)"/>
<path d="M0 0 C0.99 0 1.98 0 3 0 C3 1.32 3 2.64 3 4 C3.99 4 4.98 4 6 4 C6 4.66 6 5.32 6 6 C4.34385343 6.38218767 2.67542976 6.71395102 1 7 C0.67 6.67 0.34 6.34 0 6 C-1.51469448 5.76807135 -3.03754562 5.58784762 -4.5625 5.4375 C-5.38878906 5.35371094 -6.21507812 5.26992187 -7.06640625 5.18359375 C-7.70449219 5.12300781 -8.34257812 5.06242187 -9 5 C-9 4.01 -9 3.02 -9 2 C-6.03 2.33 -3.06 2.66 0 3 C0 2.01 0 1.02 0 0 Z " fill="#3C4F34" transform="translate(36,88)"/>
<path d="M0 0 C0.99 0.33 1.98 0.66 3 1 C3.0270043 2.45823212 3.04639787 3.91660675 3.0625 5.375 C3.07410156 6.18710937 3.08570313 6.99921875 3.09765625 7.8359375 C3 10 3 10 2 12 C1.34 12 0.68 12 0 12 C0 10.68 0 9.36 0 8 C-0.66 8 -1.32 8 -2 8 C-2 5.69 -2 3.38 -2 1 C-1.34 0.67 -0.68 0.34 0 0 Z " fill="#047A45" transform="translate(129,45)"/>
<path d="M0 0 C5.75 0.75 5.75 0.75 8 3 C8 4.32 8 5.64 8 7 C5.69 7 3.38 7 1 7 C0.67 4.69 0.34 2.38 0 0 Z " fill="#136E99" transform="translate(36,47)"/>
<path d="M0 0 C1.98 0 3.96 0 6 0 C6 2.64 6 5.28 6 8 C4.02 8 2.04 8 0 8 C0 5.36 0 2.72 0 0 Z " fill="#B19A35" transform="translate(69,61)"/>
<path d="M0 0 C1.98 0 3.96 0 6 0 C6 1.98 6 3.96 6 6 C4.35 6 2.7 6 1 6 C3.475 6.99 3.475 6.99 6 8 C6 8.33 6 8.66 6 9 C4.02 9 2.04 9 0 9 C0 6.03 0 3.06 0 0 Z " fill="#B6A53C" transform="translate(28,46)"/>
<path d="M0 0 C1.65 0 3.3 0 5 0 C5 1.65 5 3.3 5 5 C4.67 4.01 4.34 3.02 4 2 C3.01 2.495 3.01 2.495 2 3 C1.91312504 6.12482562 1.85965432 9.24934246 1.8125 12.375 C1.78736328 13.26445313 1.76222656 14.15390625 1.73632812 15.0703125 C1.72666016 15.92109375 1.71699219 16.771875 1.70703125 17.6484375 C1.6913208 18.43395996 1.67561035 19.21948242 1.65942383 20.02880859 C1.77181396 20.67930176 1.8842041 21.32979492 2 22 C2.99 22.66 3.98 23.32 5 24 C3.35 24 1.7 24 0 24 C0 16.08 0 8.16 0 0 Z " fill="#1E6E4A" transform="translate(185,73)"/>
<path d="M0 0 C4.95 0 9.9 0 15 0 C14.67 0.66 14.34 1.32 14 2 C12.68 2 11.36 2 10 2 C10 2.66 10 3.32 10 4 C8.35 4 6.7 4 5 4 C5 3.34 5 2.68 5 2 C3.35 1.67 1.7 1.34 0 1 C0 0.67 0 0.34 0 0 Z " fill="#BCB742" transform="translate(44,88)"/>
<path d="M0 0 C-0.66 2.31 -1.32 4.62 -2 7 C-4.97 6.505 -4.97 6.505 -8 6 C-8.33 5.01 -8.66 4.02 -9 3 C-5.95442672 -0.04557328 -4.19574719 -0.1104144 0 0 Z " fill="#9E2428" transform="translate(42,9)"/>
<path d="M0 0 C0.66 0 1.32 0 2 0 C2.02698189 1.62490954 2.04638757 3.24994633 2.0625 4.875 C2.07410156 5.77992187 2.08570313 6.68484375 2.09765625 7.6171875 C2 10 2 10 1 12 C0.01 12 -0.98 12 -2 12 C-2.17835515 7.45194365 -1.99785435 4.1205746 0 0 Z " fill="#1E9AD7" transform="translate(51,74)"/>
<path d="M0 0 C2.97 0.495 2.97 0.495 6 1 C5.67 1.66 5.34 2.32 5 3 C4.34 3 3.68 3 3 3 C2.67 7.29 2.34 11.58 2 16 C0.35 15.67 -1.3 15.34 -3 15 C-3 14.34 -3 13.68 -3 13 C-1.68 13.33 -0.36 13.66 1 14 C0.83628906 13.44828125 0.67257813 12.8965625 0.50390625 12.328125 C-0.05760414 9.73385993 -0.09739008 7.40164589 -0.0625 4.75 C-0.05347656 3.85796875 -0.04445312 2.9659375 -0.03515625 2.046875 C-0.02355469 1.37140625 -0.01195312 0.6959375 0 0 Z " fill="#1F5057" transform="translate(47,70)"/>
<path d="M0 0 C1.32 0.66 2.64 1.32 4 2 C3.67 3.98 3.34 5.96 3 8 C-1.455 8.495 -1.455 8.495 -6 9 C-6.33 8.01 -6.66 7.02 -7 6 C-5.02 6 -3.04 6 -1 6 C-0.67 4.02 -0.34 2.04 0 0 Z " fill="#037946" transform="translate(188,57)"/>
<path d="M0 0 C0.66 0.33 1.32 0.66 2 1 C2 6.61 2 12.22 2 18 C1.34 18.33 0.68 18.66 0 19 C-1.27603607 15.17189179 -0.86283987 11.76524893 -0.5625 7.8125 C-0.51029297 7.06291016 -0.45808594 6.31332031 -0.40429688 5.54101562 C-0.27486216 3.69362918 -0.13813482 1.84675629 0 0 Z " fill="#027B45" transform="translate(165,45)"/>
<path d="M0 0 C1.98 0 3.96 0 6 0 C5.01 2.97 4.02 5.94 3 9 C2.67 9 2.34 9 2 9 C2 7.35 2 5.7 2 4 C0.68 4.99 -0.64 5.98 -2 7 C-1.125 2.25 -1.125 2.25 0 0 Z " fill="#1C7550" transform="translate(178,73)"/>
<path d="M0 0 C2.0625 0.4375 2.0625 0.4375 4 1 C4.12375 2.134375 4.2475 3.26875 4.375 4.4375 C4.684375 6.2009375 4.684375 6.2009375 5 8 C5.66 8.33 6.32 8.66 7 9 C6.01 9 5.02 9 4 9 C3.67 8.34 3.34 7.68 3 7 C0.97536745 6.34786708 0.97536745 6.34786708 -1 6 C-1.042721 4.33388095 -1.04063832 2.66617115 -1 1 C-0.67 0.67 -0.34 0.34 0 0 Z " fill="#037945" transform="translate(226,44)"/>
<path d="M0 0 C0.33 0.99 0.66 1.98 1 3 C1.66 3 2.32 3 3 3 C3.33 2.34 3.66 1.68 4 1 C3.67 2.32 3.34 3.64 3 5 C2.67 5 2.34 5 2 5 C1.67 7.31 1.34 9.62 1 12 C2.32 12 3.64 12 5 12 C5.33 10.68 5.66 9.36 6 8 C6 9.65 6 11.3 6 13 C4.02 13 2.04 13 0 13 C-0.144375 11.906875 -0.28875 10.81375 -0.4375 9.6875 C-0.88288104 6.06877013 -0.88288104 6.06877013 -2 3 C-1.34 2.01 -0.68 1.02 0 0 Z " fill="#1E7B53" transform="translate(128,54)"/>
<path d="M0 0 C1.32 0.33 2.64 0.66 4 1 C4.625 4.375 4.625 4.375 5 8 C4.34 8.66 3.68 9.32 3 10 C1.35 8.02 -0.3 6.04 -2 4 C-1.01 4 -0.02 4 1 4 C0.67 2.68 0.34 1.36 0 0 Z " fill="#252829" transform="translate(49,53)"/>
<path d="M0 0 C0.66 0.99 1.32 1.98 2 3 C1.484375 3.53625 0.96875 4.0725 0.4375 4.625 C-1.32605545 7.00496499 -1.32605545 7.00496499 -0.6875 10.25 C-0.460625 11.1575 -0.23375 12.065 0 13 C-0.66 13 -1.32 13 -2 13 C-5.1754386 6.64912281 -5.1754386 6.64912281 -4.375 3.6875 C-3 2 -3 2 0 0 Z " fill="#027C45" transform="translate(211,50)"/>
<path d="M0 0 C2.4375 0.375 2.4375 0.375 5 1 C5.33 1.66 5.66 2.32 6 3 C5.34 3.66 4.68 4.32 4 5 C3.01 5 2.02 5 1 5 C0.67 5.66 0.34 6.32 0 7 C-1.32 6.67 -2.64 6.34 -4 6 C-4 5.34 -4 4.68 -4 4 C-4.66 3.67 -5.32 3.34 -6 3 C-4.68 3.33 -3.36 3.66 -2 4 C-1.34 2.68 -0.68 1.36 0 0 Z " fill="#31403B" transform="translate(53,65)"/>
<path d="M0 0 C1.5371305 5.70934184 2.11836527 11.08173665 2 17 C2.66 16.34 3.32 15.68 4 15 C3.6875 16.875 3.6875 16.875 3 19 C2.01 19.66 1.02 20.32 0 21 C-1.29521242 17.11436275 -1.14503464 13.42199731 -1.125 9.375 C-1.12886719 8.58609375 -1.13273437 7.7971875 -1.13671875 6.984375 C-1.12665394 1.12665394 -1.12665394 1.12665394 0 0 Z " fill="#731E20" transform="translate(33,13)"/>
<path d="M0 0 C2.475 0.99 2.475 0.99 5 2 C5 3.32 5 4.64 5 6 C2.69 5.67 0.38 5.34 -2 5 C-2.33 6.32 -2.66 7.64 -3 9 C-3 7.35 -3 5.7 -3 4 C-3.99 3.67 -4.98 3.34 -6 3 C-4.35 3 -2.7 3 -1 3 C-0.67 2.01 -0.34 1.02 0 0 Z " fill="#35484B" transform="translate(44,51)"/>
<path d="M0 0 C2.3431213 0.25561323 4.67843403 0.59270772 7 1 C7.33 1.66 7.66 2.32 8 3 C7.01 3 6.02 3 5 3 C5.66 4.65 6.32 6.3 7 8 C5.68 8.33 4.36 8.66 3 9 C3.66 8.67 4.32 8.34 5 8 C4.34 7.34 3.68 6.68 3 6 C0.8614515 3.8614515 0.57344937 2.86724686 0 0 Z " fill="#3B4242" transform="translate(52,53)"/>
<path d="M0 0 C0.71929687 0.29003906 1.43859375 0.58007812 2.1796875 0.87890625 C2.90414062 1.16636719 3.62859375 1.45382813 4.375 1.75 C4.92929687 1.97816406 5.48359375 2.20632812 6.0546875 2.44140625 C4.7109375 3.9609375 4.7109375 3.9609375 3.0546875 5.44140625 C0.5546875 5.12890625 0.5546875 5.12890625 -1.9453125 4.44140625 C-2.9353125 4.44140625 -3.9253125 4.44140625 -4.9453125 4.44140625 C-4.5703125 2.50390625 -4.5703125 2.50390625 -3.9453125 0.44140625 C-1.9453125 -0.55859375 -1.9453125 -0.55859375 0 0 Z " fill="#A02C33" transform="translate(37.9453125,16.55859375)"/>
<path d="M0 0 C1 3 1 3 0.0625 5.1875 C-0.4634375 6.0846875 -0.4634375 6.0846875 -1 7 C-2.65 6.67 -4.3 6.34 -6 6 C-6.33 4.35 -6.66 2.7 -7 1 C-3.125 1.875 -3.125 1.875 -2 3 C-1.34 2.01 -0.68 1.02 0 0 Z " fill="#1A754D" transform="translate(125,60)"/>
<path d="M0 0 C0.99 0.33 1.98 0.66 3 1 C2.649375 1.61875 2.29875 2.2375 1.9375 2.875 C1.628125 3.57625 1.31875 4.2775 1 5 C1.33 5.66 1.66 6.32 2 7 C1.67 7.66 1.34 8.32 1 9 C1.66 9.33 2.32 9.66 3 10 C2.67 11.65 2.34 13.3 2 15 C1.01 15 0.02 15 -1 15 C-0.814375 14.505 -0.62875 14.01 -0.4375 13.5 C-0.0047921 11.02738344 -0.14232833 9.3959268 -0.5 6.9375 C-1 3 -1 3 0 0 Z " fill="#9A2125" transform="translate(46,23)"/>
<path d="M0 0 C2.31 0 4.62 0 7 0 C7 0.66 7 1.32 7 2 C8.65 2.33 10.3 2.66 12 3 C12 3.33 12 3.66 12 4 C8.96663814 4.22893297 6.02534949 4.36475845 3 4 C0.9375 2 0.9375 2 0 0 Z " fill="#BDB754" transform="translate(37,83)"/>
<path d="M0 0 C1.31223496 3.93670488 0.24296256 6.12488144 -1 10 C-0.34 10.66 0.32 11.32 1 12 C-2.63 12 -6.26 12 -10 12 C-10 11.67 -10 11.34 -10 11 C-8.35 11 -6.7 11 -5 11 C-5 10.34 -5 9.68 -5 9 C-4.34 9 -3.68 9 -3 9 C-2.01 6.03 -1.02 3.06 0 0 Z " fill="#237352" transform="translate(219,55)"/>
<path d="M0 0 C4.95 0.99 4.95 0.99 10 2 C10 2.99 10 3.98 10 5 C3.375 5.25 3.375 5.25 0 3 C0 2.01 0 1.02 0 0 Z " fill="#067944" transform="translate(102,91)"/>
<path d="M0 0 C-0.9375 2 -0.9375 2 -3 4 C-6.02534949 4.36475845 -8.96663814 4.22893297 -12 4 C-8.21692645 0.21692645 -5.303392 -0.24106327 0 0 Z " fill="#BEBB53" transform="translate(66,83)"/>
<path d="M0 0 C1.65 0 3.3 0 5 0 C5 1.98 5 3.96 5 6 C3.35 6 1.7 6 0 6 C0 4.02 0 2.04 0 0 Z " fill="#B3A842" transform="translate(69,49)"/>
<path d="M0 0 C0.33 0 0.66 0 1 0 C1 1.98 1 3.96 1 6 C1.99 6 2.98 6 4 6 C4.33 4.02 4.66 2.04 5 0 C5.66 0.33 6.32 0.66 7 1 C6.67 3.31 6.34 5.62 6 8 C4.02 8.33 2.04 8.66 0 9 C0 6.03 0 3.06 0 0 Z " fill="#1E734D" transform="translate(133,20)"/>
<path d="M0 0 C2.475 0.495 2.475 0.495 5 1 C4.34 3.31 3.68 5.62 3 8 C2.01 8 1.02 8 0 8 C0 5.36 0 2.72 0 0 Z " fill="#057A44" transform="translate(134,18)"/>
<path d="M0 0 C0.33 1.32 0.66 2.64 1 4 C0.01 4 -0.98 4 -2 4 C-2 4.99 -2 5.98 -2 7 C-1.34 7.33 -0.68 7.66 0 8 C-3 10 -3 10 -5 11 C-5 9.35 -5 7.7 -5 6 C-4.34 6 -3.68 6 -3 6 C-3.33 4.35 -3.66 2.7 -4 1 C-2 0 -2 0 0 0 Z " fill="#525944" transform="translate(29,86)"/>
<path d="M0 0 C2.50298434 2.93828597 3.46930939 5.17902761 4 9 C2.68 9.99 1.36 10.98 0 12 C-0.79953138 8.71303767 -1.09658936 7.28976808 0 4 C0 2.68 0 1.36 0 0 Z " fill="#15754C" transform="translate(117,49)"/>
<path d="M0 0 C1.80411967 2.75924185 2.0127245 3.88972103 1.625 7.25 C1.41875 8.1575 1.2125 9.065 1 10 C0.01 10.33 -0.98 10.66 -2 11 C-2.05399736 9.54207116 -2.09279177 8.08357288 -2.125 6.625 C-2.15980469 5.40683594 -2.15980469 5.40683594 -2.1953125 4.1640625 C-2 2 -2 2 0 0 Z " fill="#027B43" transform="translate(269,49)"/>
<path d="M0 0 C0.99 0 1.98 0 3 0 C3 0.66 3 1.32 3 2 C3.66 2 4.32 2 5 2 C5 3.65 5 5.3 5 7 C3.68 7 2.36 7 1 7 C0.67 4.69 0.34 2.38 0 0 Z " fill="#087949" transform="translate(189,29)"/>
<path d="M0 0 C0.66 0 1.32 0 2 0 C2.061875 0.598125 2.12375 1.19625 2.1875 1.8125 C3.3236757 4.87143458 5.17330142 5.55041099 8 7 C7.67 7.66 7.34 8.32 7 9 C3.76939581 8.44299928 1.9341777 7.70784878 0 5 C-0.1875 2.3125 -0.1875 2.3125 0 0 Z " fill="#027B45" transform="translate(195,86)"/>
<path d="M0 0 C0.33 0 0.66 0 1 0 C1 1.65 1 3.3 1 5 C4.465 4.505 4.465 4.505 8 4 C8 4.99 8 5.98 8 7 C6 8 6 8 2.875 7.0625 C1.92625 6.711875 0.9775 6.36125 0 6 C0 4.02 0 2.04 0 0 Z M5 8 C5.99 8.495 5.99 8.495 7 9 C6.67 9.66 6.34 10.32 6 11 C5.67 10.01 5.34 9.02 5 8 Z " fill="#17774D" transform="translate(200,48)"/>
<path d="M0 0 C0.66 0 1.32 0 2 0 C1.5020163 3.73487777 1.12508244 5.81237635 -1 9 C-1.66 9 -2.32 9 -3 9 C-3.33 8.01 -3.66 7.02 -4 6 C-3.34 5.01 -2.68 4.02 -2 3 C-1.34 3 -0.68 3 0 3 C0 2.01 0 1.02 0 0 Z " fill="#017C43" transform="translate(155,80)"/>
<path d="M0 0 C0.66 0 1.32 0 2 0 C3.0625 1.8125 3.0625 1.8125 4 4 C3.67 4.99 3.34 5.98 3 7 C2.01 7 1.02 7 0 7 C-0.66 7.66 -1.32 8.32 -2 9 C-2 8.01 -2 7.02 -2 6 C-2.66 5.67 -3.32 5.34 -4 5 C-2.68 5 -1.36 5 0 5 C0 3.35 0 1.7 0 0 Z " fill="#4B4D3B" transform="translate(72,88)"/>
<path d="M0 0 C0.33 0.66 0.66 1.32 1 2 C1.66 2 2.32 2 3 2 C3 2.99 3 3.98 3 5 C3.99 5 4.98 5 6 5 C6.33 4.01 6.66 3.02 7 2 C7.33 3.65 7.66 5.3 8 7 C6.02 7 4.04 7 2 7 C0.5393715 4.35261084 0 3.10551666 0 0 Z " fill="#1B6F4B" transform="translate(152,90)"/>
<path d="M0 0 C1.98 0 3.96 0 6 0 C6.66 1.32 7.32 2.64 8 4 C5.69 4 3.38 4 1 4 C0.67 2.68 0.34 1.36 0 0 Z " fill="#B7AE3B" transform="translate(32,78)"/>
<path d="M0 0 C0.33 0 0.66 0 1 0 C1 1.65 1 3.3 1 5 C1.66 5 2.32 5 3 5 C2.34 7.31 1.68 9.62 1 12 C0.67 12 0.34 12 0 12 C0 10.02 0 8.04 0 6 C-0.66 6 -1.32 6 -2 6 C-1.34 4.02 -0.68 2.04 0 0 Z " fill="#18744F" transform="translate(151,52)"/>
<path d="M0 0 C0.99 0.99 1.98 1.98 3 3 C3 2.34 3 1.68 3 1 C4.65 1.33 6.3 1.66 8 2 C8 2.99 8 3.98 8 5 C1.25 5.125 1.25 5.125 -1 4 C-0.67 2.68 -0.34 1.36 0 0 Z " fill="#945C2D" transform="translate(54,37)"/>
<path d="M0 0 C1.32 0 2.64 0 4 0 C4 1.65 4 3.3 4 5 C4.99 5.33 5.98 5.66 7 6 C5.68 6 4.36 6 3 6 C3 5.34 3 4.68 3 4 C2.01 4 1.02 4 0 4 C-0.33 4.66 -0.66 5.32 -1 6 C-1.042721 4.33388095 -1.04063832 2.66617115 -1 1 C-0.67 0.67 -0.34 0.34 0 0 Z " fill="#364138" transform="translate(74,93)"/>
<path d="M0 0 C1.98 0 3.96 0 6 0 C6.33 1.32 6.66 2.64 7 4 C5.02 4 3.04 4 1 4 C0.67 2.68 0.34 1.36 0 0 Z " fill="#B4AA43" transform="translate(29,73)"/>
<path d="M0 0 C0.99 0.33 1.98 0.66 3 1 C2.34 2.65 1.68 4.3 1 6 C-0.65 5.67 -2.3 5.34 -4 5 C-2.68 3.35 -1.36 1.7 0 0 Z " fill="#137EAC" transform="translate(64,47)"/>
<path d="M0 0 C0.66 0.66 1.32 1.32 2 2 C1 3 1 3 -2.5625 3.0625 C-3.696875 3.041875 -4.83125 3.02125 -6 3 C-5.65213292 4.97536745 -5.65213292 4.97536745 -5 7 C-4.34 7.33 -3.68 7.66 -3 8 C-4.32 7.67 -5.64 7.34 -7 7 C-7.33 5.35 -7.66 3.7 -8 2 C-4.94736336 1.01879536 -3.05263664 1.01879536 0 2 C0 1.34 0 0.68 0 0 Z " fill="#7B2820" transform="translate(62,33)"/>
<path d="M0 0 C1.9451 2.91765 2.45276317 4.62537285 3 8 C2.401875 8.144375 1.80375 8.28875 1.1875 8.4375 C-0.56150404 8.8872439 -2.28677023 9.42892341 -4 10 C-3.67 8.35 -3.34 6.7 -3 5 C-2.01 4.67 -1.02 4.34 0 4 C0 2.68 0 1.36 0 0 Z " fill="#821E21" transform="translate(65,9)"/>
<path d="M0 0 C3.6875 0.3125 3.6875 0.3125 7 1 C6.67 1.99 6.34 2.98 6 4 C3.03 3.67 0.06 3.34 -3 3 C-2.01 2.01 -1.02 1.02 0 0 Z " fill="#037C46" transform="translate(144,14)"/>
<path d="M0 0 C1.65 0 3.3 0 5 0 C5 1.32 5 2.64 5 4 C2.69 4 0.38 4 -2 4 C-1.34 2.68 -0.68 1.36 0 0 Z " fill="#B8B243" transform="translate(67,75)"/>
<path d="M0 0 C2.9375 0.375 2.9375 0.375 6 1 C6.33 1.66 6.66 2.32 7 3 C6.01 4.32 5.02 5.64 4 7 C2.68 6.01 1.36 5.02 0 4 C1.32 4 2.64 4 4 4 C4 3.34 4 2.68 4 2 C2.68 1.67 1.36 1.34 0 1 C0 0.67 0 0.34 0 0 Z " fill="#227450" transform="translate(206,73)"/>
<path d="M0 0 C0.99 0 1.98 0 3 0 C3.20140476 3.62528568 2.85776765 5.86501708 1 9 C0.34 8.67 -0.32 8.34 -1 8 C-0.67 7.34 -0.34 6.68 0 6 C-0.66 6 -1.32 6 -2 6 C-2 5.34 -2 4.68 -2 4 C-1.01 4 -0.02 4 1 4 C0.67 2.68 0.34 1.36 0 0 Z " fill="#4E5046" transform="translate(59,60)"/>
<path d="M0 0 C2.97 0 5.94 0 9 0 C9 0.33 9 0.66 9 1 C7.02 1.33 5.04 1.66 3 2 C3.66 2.33 4.32 2.66 5 3 C5 4.65 5 6.3 5 8 C4.67 6.68 4.34 5.36 4 4 C2.68 4 1.36 4 0 4 C0 2.68 0 1.36 0 0 Z " fill="#21724F" transform="translate(183,53)"/>
<path d="M0 0 C0.99 0.33 1.98 0.66 3 1 C3.33 3.31 3.66 5.62 4 8 C2.68 7.34 1.36 6.68 0 6 C0 4.02 0 2.04 0 0 Z " fill="#95262B" transform="translate(65,23)"/>
<path d="M0 0 C1.98 0 3.96 0 6 0 C6.33 1.32 6.66 2.64 7 4 C5.02 4 3.04 4 1 4 C0.67 2.68 0.34 1.36 0 0 Z " fill="#1E7552" transform="translate(159,73)"/>
<path d="M0 0 C0.33 0 0.66 0 1 0 C1 1.65 1 3.3 1 5 C1.99 4.67 2.98 4.34 4 4 C4 4.99 4 5.98 4 7 C2.02 7 0.04 7 -2 7 C-1.125 2.25 -1.125 2.25 0 0 Z " fill="#1B7250" transform="translate(206,30)"/>
<path d="M0 0 C0.66 0 1.32 0 2 0 C2 0.66 2 1.32 2 2 C3.65 2.33 5.3 2.66 7 3 C7 3.66 7 4.32 7 5 C5.02 5 3.04 5 1 5 C0.67 3.35 0.34 1.7 0 0 Z " fill="#368249" transform="translate(29,86)"/>
<path d="M0 0 C0.66 0 1.32 0 2 0 C2 1.65 2 3.3 2 5 C0.02 5.99 0.02 5.99 -2 7 C-1.125 1.125 -1.125 1.125 0 0 Z " fill="#037947" transform="translate(178,77)"/>
<path d="M0 0 C1.98 0.66 3.96 1.32 6 2 C6 2.66 6 3.32 6 4 C4.02 4.99 4.02 4.99 2 6 C2 5.34 2 4.68 2 4 C1.01 3.67 0.02 3.34 -1 3 C-0.67 2.01 -0.34 1.02 0 0 Z " fill="#992A31" transform="translate(56,17)"/>
<path d="M0 0 C2.475 0.495 2.475 0.495 5 1 C4.67 2.32 4.34 3.64 4 5 C2.68 4.67 1.36 4.34 0 4 C0 2.68 0 1.36 0 0 Z " fill="#027B44" transform="translate(214,15)"/>
<path d="M0 0 C2.475 0.99 2.475 0.99 5 2 C4.67 2.66 4.34 3.32 4 4 C0.7 4 -2.6 4 -6 4 C-2 2 -2 2 0 2 C0 1.34 0 0.68 0 0 Z " fill="#222625" transform="translate(49,97)"/>
<path d="M0 0 C0.33 1.32 0.66 2.64 1 4 C-1.64 4 -4.28 4 -7 4 C-7 3.34 -7 2.68 -7 2 C-4.69 1.34 -2.38 0.68 0 0 Z " fill="#2F7738" transform="translate(61,88)"/>
<path d="M0 0 C0 1.65 0 3.3 0 5 C-1.32 5.33 -2.64 5.66 -4 6 C-4 4.35 -4 2.7 -4 1 C-1 0 -1 0 0 0 Z " fill="#027C45" transform="translate(151,59)"/>
<path d="M0 0 C-0.33 0.99 -0.66 1.98 -1 3 C-4.0625 4.1875 -4.0625 4.1875 -7 5 C-7 4.01 -7 3.02 -7 2 C-4 0 -4 0 0 0 Z " fill="#771E25" transform="translate(47,20)"/>
<path d="M0 0 C0.66 0 1.32 0 2 0 C1.67 2.31 1.34 4.62 1 7 C0.01 6.67 -0.98 6.34 -2 6 C-1.34 4.02 -0.68 2.04 0 0 Z " fill="#047D49" transform="translate(191,17)"/>
<path d="M0 0 C2.97 0 5.94 0 9 0 C9.33 1.32 9.66 2.64 10 4 C8.35 4 6.7 4 5 4 C5.66 3.34 6.32 2.68 7 2 C4.69 1.67 2.38 1.34 0 1 C0 0.67 0 0.34 0 0 Z " fill="#157449" transform="translate(163,14)"/>
<path d="M0 0 C0 0.99 0 1.98 0 3 C-0.66 3 -1.32 3 -2 3 C-2.33 4.32 -2.66 5.64 -3 7 C-3 6.01 -3 5.02 -3 4 C-3.66 4 -4.32 4 -5 4 C-5 3.01 -5 2.02 -5 1 C-3 0 -3 0 0 0 Z " fill="#88222B" transform="translate(50,4)"/>
<path d="M0 0 C3.465 1.485 3.465 1.485 7 3 C7 3.33 7 3.66 7 4 C4.36 4 1.72 4 -1 4 C-0.67 2.68 -0.34 1.36 0 0 Z " fill="#258746" transform="translate(40,88)"/>
<path d="M0 0 C0.33 0 0.66 0 1 0 C1.125 5.75 1.125 5.75 0 8 C-0.66 8 -1.32 8 -2 8 C-2.33 8.99 -2.66 9.98 -3 11 C-2.44894091 7.0507432 -1.61064629 3.65079826 0 0 Z " fill="#19744D" transform="translate(126,48)"/>
<path d="M0 0 C0.33 0.66 0.66 1.32 1 2 C0.67 2.99 0.34 3.98 0 5 C-1.65 5 -3.3 5 -5 5 C-5 4.01 -5 3.02 -5 2 C-3.35 1.34 -1.7 0.68 0 0 Z " fill="#AAA131" transform="translate(74,43)"/>
<path d="M0 0 C2.97 0.495 2.97 0.495 6 1 C6 1.66 6 2.32 6 3 C3.69 3 1.38 3 -1 3 C-0.67 2.01 -0.34 1.02 0 0 Z " fill="#2B834C" transform="translate(75,88)"/>
<path d="M0 0 C3 3.625 3 3.625 3 7 C1.35 7 -0.3 7 -2 7 C-1.34 6.67 -0.68 6.34 0 6 C0 4.02 0 2.04 0 0 Z " fill="#1F7350" transform="translate(237,60)"/>
<path d="M0 0 C1.65 0 3.3 0 5 0 C4.67 1.32 4.34 2.64 4 4 C2.68 4 1.36 4 0 4 C0 2.68 0 1.36 0 0 Z " fill="#B9B136" transform="translate(69,56)"/>
<path d="M0 0 C1.65 0 3.3 0 5 0 C5 1.32 5 2.64 5 4 C3.68 4 2.36 4 1 4 C0.67 2.68 0.34 1.36 0 0 Z " fill="#BAAE36" transform="translate(29,56)"/>
<path d="M0 0 C3.16115776 1.36983503 3.9927092 1.9890638 6 5 C5.625 7.1875 5.625 7.1875 5 9 C3.19933758 6.0534615 1.49836105 3.11198065 0 0 Z " fill="#1D754E" transform="translate(282,44)"/>
<path d="M0 0 C0.66 0.33 1.32 0.66 2 1 C1.67 1.66 1.34 2.32 1 3 C0.34 3 -0.32 3 -1 3 C-1.12375 3.639375 -1.2475 4.27875 -1.375 4.9375 C-1.58125 5.618125 -1.7875 6.29875 -2 7 C-2.99 7.495 -2.99 7.495 -4 8 C-3.50168276 4.31245243 -2.89932357 2.39509338 0 0 Z " fill="#1B764F" transform="translate(176,44)"/>
<path d="M0 0 C0 0.99 0 1.98 0 3 C-3.3 2.34 -6.6 1.68 -10 1 C-6.1496895 -1.56687367 -4.41430237 -0.83288724 0 0 Z " fill="#6B5D0D" transform="translate(73,41)"/>
<path d="M0 0 C0.99 0.33 1.98 0.66 3 1 C2.67 1.99 2.34 2.98 2 4 C1.01 4 0.02 4 -1 4 C-1.33 4.66 -1.66 5.32 -2 6 C-2.33 4.68 -2.66 3.36 -3 2 C-2.01 1.34 -1.02 0.68 0 0 Z " fill="#A1282C" transform="translate(65,16)"/>
<path d="M0 0 C2 1 2 1 2 1 Z " fill="#000000" transform="translate(79,94)"/>
<path d="" fill="#4A4D4D" transform="translate(0,0)"/>
<path d="" fill="#804040" transform="translate(0,0)"/>
<path d="" fill="#5D4646" transform="translate(0,0)"/>
</svg>
